<?xml version="1.0" encoding="utf-8" standalone="no"?>
<!DOCTYPE svg PUBLIC "-//W3C//DTD SVG 1.1//EN"
  "http://www.w3.org/Graphics/SVG/1.1/DTD/svg11.dtd">
<svg xmlns:xlink="http://www.w3.org/1999/xlink" width="478.077175pt" height="452.16pt" viewBox="0 0 478.077175 452.16" xmlns="http://www.w3.org/2000/svg" version="1.1">
 <metadata>
  <rdf:RDF xmlns:dc="http://purl.org/dc/elements/1.1/" xmlns:cc="http://creativecommons.org/ns#" xmlns:rdf="http://www.w3.org/1999/02/22-rdf-syntax-ns#">
   <cc:Work>
    <dc:type rdf:resource="http://purl.org/dc/dcmitype/StillImage"/>
    <dc:date>2023-09-22T20:29:13.551450</dc:date>
    <dc:format>image/svg+xml</dc:format>
    <dc:creator>
     <cc:Agent>
      <dc:title>Matplotlib v3.7.2, https://matplotlib.org/</dc:title>
     </cc:Agent>
    </dc:creator>
   </cc:Work>
  </rdf:RDF>
 </metadata>
 <defs>
  <style type="text/css">*{stroke-linejoin: round; stroke-linecap: butt}</style>
 </defs>
 <g id="figure_1">
  <g id="patch_1">
   <path d="M -0 452.16 
L 478.077175 452.16 
L 478.077175 0 
L -0 0 
z
" style="fill: #ffffff"/>
  </g>
  <g id="axes_1">
   <g id="patch_2">
    <path d="M 7.2 444.96 
L 175.68 444.96 
L 175.68 7.2 
L 7.2 7.2 
z
" style="fill: #ffffff"/>
   </g>
   <g id="matplotlib.axis_1">
    <g id="xtick_1"/>
    <g id="xtick_2"/>
    <g id="xtick_3"/>
    <g id="xtick_4"/>
   </g>
   <g id="matplotlib.axis_2">
    <g id="ytick_1">
     <g id="text_1">
      <!-- Dach1 GP/Pitx3 GP+ STR_medial -->
      <g style="fill: #262626" transform="translate(182.68 429.492467) scale(0.11662 -0.11662)">
       <defs>
        <path id="DejaVuSans-44" d="M 1259 4147 
L 1259 519 
L 2022 519 
Q 2988 519 3436 956 
Q 3884 1394 3884 2338 
Q 3884 3275 3436 3711 
Q 2988 4147 2022 4147 
L 1259 4147 
z
M 628 4666 
L 1925 4666 
Q 3281 4666 3915 4102 
Q 4550 3538 4550 2338 
Q 4550 1131 3912 565 
Q 3275 0 1925 0 
L 628 0 
L 628 4666 
z
" transform="scale(0.015625)"/>
        <path id="DejaVuSans-61" d="M 2194 1759 
Q 1497 1759 1228 1600 
Q 959 1441 959 1056 
Q 959 750 1161 570 
Q 1363 391 1709 391 
Q 2188 391 2477 730 
Q 2766 1069 2766 1631 
L 2766 1759 
L 2194 1759 
z
M 3341 1997 
L 3341 0 
L 2766 0 
L 2766 531 
Q 2569 213 2275 61 
Q 1981 -91 1556 -91 
Q 1019 -91 701 211 
Q 384 513 384 1019 
Q 384 1609 779 1909 
Q 1175 2209 1959 2209 
L 2766 2209 
L 2766 2266 
Q 2766 2663 2505 2880 
Q 2244 3097 1772 3097 
Q 1472 3097 1187 3025 
Q 903 2953 641 2809 
L 641 3341 
Q 956 3463 1253 3523 
Q 1550 3584 1831 3584 
Q 2591 3584 2966 3190 
Q 3341 2797 3341 1997 
z
" transform="scale(0.015625)"/>
        <path id="DejaVuSans-63" d="M 3122 3366 
L 3122 2828 
Q 2878 2963 2633 3030 
Q 2388 3097 2138 3097 
Q 1578 3097 1268 2742 
Q 959 2388 959 1747 
Q 959 1106 1268 751 
Q 1578 397 2138 397 
Q 2388 397 2633 464 
Q 2878 531 3122 666 
L 3122 134 
Q 2881 22 2623 -34 
Q 2366 -91 2075 -91 
Q 1284 -91 818 406 
Q 353 903 353 1747 
Q 353 2603 823 3093 
Q 1294 3584 2113 3584 
Q 2378 3584 2631 3529 
Q 2884 3475 3122 3366 
z
" transform="scale(0.015625)"/>
        <path id="DejaVuSans-68" d="M 3513 2113 
L 3513 0 
L 2938 0 
L 2938 2094 
Q 2938 2591 2744 2837 
Q 2550 3084 2163 3084 
Q 1697 3084 1428 2787 
Q 1159 2491 1159 1978 
L 1159 0 
L 581 0 
L 581 4863 
L 1159 4863 
L 1159 2956 
Q 1366 3272 1645 3428 
Q 1925 3584 2291 3584 
Q 2894 3584 3203 3211 
Q 3513 2838 3513 2113 
z
" transform="scale(0.015625)"/>
        <path id="DejaVuSans-31" d="M 794 531 
L 1825 531 
L 1825 4091 
L 703 3866 
L 703 4441 
L 1819 4666 
L 2450 4666 
L 2450 531 
L 3481 531 
L 3481 0 
L 794 0 
L 794 531 
z
" transform="scale(0.015625)"/>
        <path id="DejaVuSans-20" transform="scale(0.015625)"/>
        <path id="DejaVuSans-47" d="M 3809 666 
L 3809 1919 
L 2778 1919 
L 2778 2438 
L 4434 2438 
L 4434 434 
Q 4069 175 3628 42 
Q 3188 -91 2688 -91 
Q 1594 -91 976 548 
Q 359 1188 359 2328 
Q 359 3472 976 4111 
Q 1594 4750 2688 4750 
Q 3144 4750 3555 4637 
Q 3966 4525 4313 4306 
L 4313 3634 
Q 3963 3931 3569 4081 
Q 3175 4231 2741 4231 
Q 1884 4231 1454 3753 
Q 1025 3275 1025 2328 
Q 1025 1384 1454 906 
Q 1884 428 2741 428 
Q 3075 428 3337 486 
Q 3600 544 3809 666 
z
" transform="scale(0.015625)"/>
        <path id="DejaVuSans-50" d="M 1259 4147 
L 1259 2394 
L 2053 2394 
Q 2494 2394 2734 2622 
Q 2975 2850 2975 3272 
Q 2975 3691 2734 3919 
Q 2494 4147 2053 4147 
L 1259 4147 
z
M 628 4666 
L 2053 4666 
Q 2838 4666 3239 4311 
Q 3641 3956 3641 3272 
Q 3641 2581 3239 2228 
Q 2838 1875 2053 1875 
L 1259 1875 
L 1259 0 
L 628 0 
L 628 4666 
z
" transform="scale(0.015625)"/>
        <path id="DejaVuSans-2f" d="M 1625 4666 
L 2156 4666 
L 531 -594 
L 0 -594 
L 1625 4666 
z
" transform="scale(0.015625)"/>
        <path id="DejaVuSans-69" d="M 603 3500 
L 1178 3500 
L 1178 0 
L 603 0 
L 603 3500 
z
M 603 4863 
L 1178 4863 
L 1178 4134 
L 603 4134 
L 603 4863 
z
" transform="scale(0.015625)"/>
        <path id="DejaVuSans-74" d="M 1172 4494 
L 1172 3500 
L 2356 3500 
L 2356 3053 
L 1172 3053 
L 1172 1153 
Q 1172 725 1289 603 
Q 1406 481 1766 481 
L 2356 481 
L 2356 0 
L 1766 0 
Q 1100 0 847 248 
Q 594 497 594 1153 
L 594 3053 
L 172 3053 
L 172 3500 
L 594 3500 
L 594 4494 
L 1172 4494 
z
" transform="scale(0.015625)"/>
        <path id="DejaVuSans-78" d="M 3513 3500 
L 2247 1797 
L 3578 0 
L 2900 0 
L 1881 1375 
L 863 0 
L 184 0 
L 1544 1831 
L 300 3500 
L 978 3500 
L 1906 2253 
L 2834 3500 
L 3513 3500 
z
" transform="scale(0.015625)"/>
        <path id="DejaVuSans-33" d="M 2597 2516 
Q 3050 2419 3304 2112 
Q 3559 1806 3559 1356 
Q 3559 666 3084 287 
Q 2609 -91 1734 -91 
Q 1441 -91 1130 -33 
Q 819 25 488 141 
L 488 750 
Q 750 597 1062 519 
Q 1375 441 1716 441 
Q 2309 441 2620 675 
Q 2931 909 2931 1356 
Q 2931 1769 2642 2001 
Q 2353 2234 1838 2234 
L 1294 2234 
L 1294 2753 
L 1863 2753 
Q 2328 2753 2575 2939 
Q 2822 3125 2822 3475 
Q 2822 3834 2567 4026 
Q 2313 4219 1838 4219 
Q 1578 4219 1281 4162 
Q 984 4106 628 3988 
L 628 4550 
Q 988 4650 1302 4700 
Q 1616 4750 1894 4750 
Q 2613 4750 3031 4423 
Q 3450 4097 3450 3541 
Q 3450 3153 3228 2886 
Q 3006 2619 2597 2516 
z
" transform="scale(0.015625)"/>
        <path id="DejaVuSans-2b" d="M 2944 4013 
L 2944 2272 
L 4684 2272 
L 4684 1741 
L 2944 1741 
L 2944 0 
L 2419 0 
L 2419 1741 
L 678 1741 
L 678 2272 
L 2419 2272 
L 2419 4013 
L 2944 4013 
z
" transform="scale(0.015625)"/>
        <path id="DejaVuSans-53" d="M 3425 4513 
L 3425 3897 
Q 3066 4069 2747 4153 
Q 2428 4238 2131 4238 
Q 1616 4238 1336 4038 
Q 1056 3838 1056 3469 
Q 1056 3159 1242 3001 
Q 1428 2844 1947 2747 
L 2328 2669 
Q 3034 2534 3370 2195 
Q 3706 1856 3706 1288 
Q 3706 609 3251 259 
Q 2797 -91 1919 -91 
Q 1588 -91 1214 -16 
Q 841 59 441 206 
L 441 856 
Q 825 641 1194 531 
Q 1563 422 1919 422 
Q 2459 422 2753 634 
Q 3047 847 3047 1241 
Q 3047 1584 2836 1778 
Q 2625 1972 2144 2069 
L 1759 2144 
Q 1053 2284 737 2584 
Q 422 2884 422 3419 
Q 422 4038 858 4394 
Q 1294 4750 2059 4750 
Q 2388 4750 2728 4690 
Q 3069 4631 3425 4513 
z
" transform="scale(0.015625)"/>
        <path id="DejaVuSans-54" d="M -19 4666 
L 3928 4666 
L 3928 4134 
L 2272 4134 
L 2272 0 
L 1638 0 
L 1638 4134 
L -19 4134 
L -19 4666 
z
" transform="scale(0.015625)"/>
        <path id="DejaVuSans-52" d="M 2841 2188 
Q 3044 2119 3236 1894 
Q 3428 1669 3622 1275 
L 4263 0 
L 3584 0 
L 2988 1197 
Q 2756 1666 2539 1819 
Q 2322 1972 1947 1972 
L 1259 1972 
L 1259 0 
L 628 0 
L 628 4666 
L 2053 4666 
Q 2853 4666 3247 4331 
Q 3641 3997 3641 3322 
Q 3641 2881 3436 2590 
Q 3231 2300 2841 2188 
z
M 1259 4147 
L 1259 2491 
L 2053 2491 
Q 2509 2491 2742 2702 
Q 2975 2913 2975 3322 
Q 2975 3731 2742 3939 
Q 2509 4147 2053 4147 
L 1259 4147 
z
" transform="scale(0.015625)"/>
        <path id="DejaVuSans-5f" d="M 3263 -1063 
L 3263 -1509 
L -63 -1509 
L -63 -1063 
L 3263 -1063 
z
" transform="scale(0.015625)"/>
        <path id="DejaVuSans-6d" d="M 3328 2828 
Q 3544 3216 3844 3400 
Q 4144 3584 4550 3584 
Q 5097 3584 5394 3201 
Q 5691 2819 5691 2113 
L 5691 0 
L 5113 0 
L 5113 2094 
Q 5113 2597 4934 2840 
Q 4756 3084 4391 3084 
Q 3944 3084 3684 2787 
Q 3425 2491 3425 1978 
L 3425 0 
L 2847 0 
L 2847 2094 
Q 2847 2600 2669 2842 
Q 2491 3084 2119 3084 
Q 1678 3084 1418 2786 
Q 1159 2488 1159 1978 
L 1159 0 
L 581 0 
L 581 3500 
L 1159 3500 
L 1159 2956 
Q 1356 3278 1631 3431 
Q 1906 3584 2284 3584 
Q 2666 3584 2933 3390 
Q 3200 3197 3328 2828 
z
" transform="scale(0.015625)"/>
        <path id="DejaVuSans-65" d="M 3597 1894 
L 3597 1613 
L 953 1613 
Q 991 1019 1311 708 
Q 1631 397 2203 397 
Q 2534 397 2845 478 
Q 3156 559 3463 722 
L 3463 178 
Q 3153 47 2828 -22 
Q 2503 -91 2169 -91 
Q 1331 -91 842 396 
Q 353 884 353 1716 
Q 353 2575 817 3079 
Q 1281 3584 2069 3584 
Q 2775 3584 3186 3129 
Q 3597 2675 3597 1894 
z
M 3022 2063 
Q 3016 2534 2758 2815 
Q 2500 3097 2075 3097 
Q 1594 3097 1305 2825 
Q 1016 2553 972 2059 
L 3022 2063 
z
" transform="scale(0.015625)"/>
        <path id="DejaVuSans-64" d="M 2906 2969 
L 2906 4863 
L 3481 4863 
L 3481 0 
L 2906 0 
L 2906 525 
Q 2725 213 2448 61 
Q 2172 -91 1784 -91 
Q 1150 -91 751 415 
Q 353 922 353 1747 
Q 353 2572 751 3078 
Q 1150 3584 1784 3584 
Q 2172 3584 2448 3432 
Q 2725 3281 2906 2969 
z
M 947 1747 
Q 947 1113 1208 752 
Q 1469 391 1925 391 
Q 2381 391 2643 752 
Q 2906 1113 2906 1747 
Q 2906 2381 2643 2742 
Q 2381 3103 1925 3103 
Q 1469 3103 1208 2742 
Q 947 2381 947 1747 
z
" transform="scale(0.015625)"/>
        <path id="DejaVuSans-6c" d="M 603 4863 
L 1178 4863 
L 1178 0 
L 603 0 
L 603 4863 
z
" transform="scale(0.015625)"/>
       </defs>
       <use xlink:href="#DejaVuSans-44"/>
       <use xlink:href="#DejaVuSans-61" x="77.001953"/>
       <use xlink:href="#DejaVuSans-63" x="138.28125"/>
       <use xlink:href="#DejaVuSans-68" x="193.261719"/>
       <use xlink:href="#DejaVuSans-31" x="256.640625"/>
       <use xlink:href="#DejaVuSans-20" x="320.263672"/>
       <use xlink:href="#DejaVuSans-47" x="352.050781"/>
       <use xlink:href="#DejaVuSans-50" x="429.541016"/>
       <use xlink:href="#DejaVuSans-2f" x="489.84375"/>
       <use xlink:href="#DejaVuSans-50" x="523.535156"/>
       <use xlink:href="#DejaVuSans-69" x="581.587891"/>
       <use xlink:href="#DejaVuSans-74" x="609.371094"/>
       <use xlink:href="#DejaVuSans-78" x="648.580078"/>
       <use xlink:href="#DejaVuSans-33" x="707.759766"/>
       <use xlink:href="#DejaVuSans-20" x="771.382812"/>
       <use xlink:href="#DejaVuSans-47" x="803.169922"/>
       <use xlink:href="#DejaVuSans-50" x="880.660156"/>
       <use xlink:href="#DejaVuSans-2b" x="940.962891"/>
       <use xlink:href="#DejaVuSans-20" x="1024.751953"/>
       <use xlink:href="#DejaVuSans-53" x="1056.539062"/>
       <use xlink:href="#DejaVuSans-54" x="1120.015625"/>
       <use xlink:href="#DejaVuSans-52" x="1181.099609"/>
       <use xlink:href="#DejaVuSans-5f" x="1250.582031"/>
       <use xlink:href="#DejaVuSans-6d" x="1300.582031"/>
       <use xlink:href="#DejaVuSans-65" x="1397.994141"/>
       <use xlink:href="#DejaVuSans-64" x="1459.517578"/>
       <use xlink:href="#DejaVuSans-69" x="1522.994141"/>
       <use xlink:href="#DejaVuSans-61" x="1550.777344"/>
       <use xlink:href="#DejaVuSans-6c" x="1612.056641"/>
      </g>
     </g>
    </g>
    <g id="ytick_2">
     <g id="text_2">
      <!-- Pitx3 GP/Cadm1 GP+ STR_ACB_shell -->
      <g style="fill: #262626" transform="translate(182.68 408.547013) scale(0.11662 -0.11662)">
       <defs>
        <path id="DejaVuSans-43" d="M 4122 4306 
L 4122 3641 
Q 3803 3938 3442 4084 
Q 3081 4231 2675 4231 
Q 1875 4231 1450 3742 
Q 1025 3253 1025 2328 
Q 1025 1406 1450 917 
Q 1875 428 2675 428 
Q 3081 428 3442 575 
Q 3803 722 4122 1019 
L 4122 359 
Q 3791 134 3420 21 
Q 3050 -91 2638 -91 
Q 1578 -91 968 557 
Q 359 1206 359 2328 
Q 359 3453 968 4101 
Q 1578 4750 2638 4750 
Q 3056 4750 3426 4639 
Q 3797 4528 4122 4306 
z
" transform="scale(0.015625)"/>
        <path id="DejaVuSans-41" d="M 2188 4044 
L 1331 1722 
L 3047 1722 
L 2188 4044 
z
M 1831 4666 
L 2547 4666 
L 4325 0 
L 3669 0 
L 3244 1197 
L 1141 1197 
L 716 0 
L 50 0 
L 1831 4666 
z
" transform="scale(0.015625)"/>
        <path id="DejaVuSans-42" d="M 1259 2228 
L 1259 519 
L 2272 519 
Q 2781 519 3026 730 
Q 3272 941 3272 1375 
Q 3272 1813 3026 2020 
Q 2781 2228 2272 2228 
L 1259 2228 
z
M 1259 4147 
L 1259 2741 
L 2194 2741 
Q 2656 2741 2882 2914 
Q 3109 3088 3109 3444 
Q 3109 3797 2882 3972 
Q 2656 4147 2194 4147 
L 1259 4147 
z
M 628 4666 
L 2241 4666 
Q 2963 4666 3353 4366 
Q 3744 4066 3744 3513 
Q 3744 3084 3544 2831 
Q 3344 2578 2956 2516 
Q 3422 2416 3680 2098 
Q 3938 1781 3938 1306 
Q 3938 681 3513 340 
Q 3088 0 2303 0 
L 628 0 
L 628 4666 
z
" transform="scale(0.015625)"/>
        <path id="DejaVuSans-73" d="M 2834 3397 
L 2834 2853 
Q 2591 2978 2328 3040 
Q 2066 3103 1784 3103 
Q 1356 3103 1142 2972 
Q 928 2841 928 2578 
Q 928 2378 1081 2264 
Q 1234 2150 1697 2047 
L 1894 2003 
Q 2506 1872 2764 1633 
Q 3022 1394 3022 966 
Q 3022 478 2636 193 
Q 2250 -91 1575 -91 
Q 1294 -91 989 -36 
Q 684 19 347 128 
L 347 722 
Q 666 556 975 473 
Q 1284 391 1588 391 
Q 1994 391 2212 530 
Q 2431 669 2431 922 
Q 2431 1156 2273 1281 
Q 2116 1406 1581 1522 
L 1381 1569 
Q 847 1681 609 1914 
Q 372 2147 372 2553 
Q 372 3047 722 3315 
Q 1072 3584 1716 3584 
Q 2034 3584 2315 3537 
Q 2597 3491 2834 3397 
z
" transform="scale(0.015625)"/>
       </defs>
       <use xlink:href="#DejaVuSans-50"/>
       <use xlink:href="#DejaVuSans-69" x="58.052734"/>
       <use xlink:href="#DejaVuSans-74" x="85.835938"/>
       <use xlink:href="#DejaVuSans-78" x="125.044922"/>
       <use xlink:href="#DejaVuSans-33" x="184.224609"/>
       <use xlink:href="#DejaVuSans-20" x="247.847656"/>
       <use xlink:href="#DejaVuSans-47" x="279.634766"/>
       <use xlink:href="#DejaVuSans-50" x="357.125"/>
       <use xlink:href="#DejaVuSans-2f" x="417.427734"/>
       <use xlink:href="#DejaVuSans-43" x="451.119141"/>
       <use xlink:href="#DejaVuSans-61" x="520.943359"/>
       <use xlink:href="#DejaVuSans-64" x="582.222656"/>
       <use xlink:href="#DejaVuSans-6d" x="645.699219"/>
       <use xlink:href="#DejaVuSans-31" x="743.111328"/>
       <use xlink:href="#DejaVuSans-20" x="806.734375"/>
       <use xlink:href="#DejaVuSans-47" x="838.521484"/>
       <use xlink:href="#DejaVuSans-50" x="916.011719"/>
       <use xlink:href="#DejaVuSans-2b" x="976.314453"/>
       <use xlink:href="#DejaVuSans-20" x="1060.103516"/>
       <use xlink:href="#DejaVuSans-53" x="1091.890625"/>
       <use xlink:href="#DejaVuSans-54" x="1155.367188"/>
       <use xlink:href="#DejaVuSans-52" x="1216.451172"/>
       <use xlink:href="#DejaVuSans-5f" x="1285.933594"/>
       <use xlink:href="#DejaVuSans-41" x="1335.933594"/>
       <use xlink:href="#DejaVuSans-43" x="1402.591797"/>
       <use xlink:href="#DejaVuSans-42" x="1472.416016"/>
       <use xlink:href="#DejaVuSans-5f" x="1541.019531"/>
       <use xlink:href="#DejaVuSans-73" x="1591.019531"/>
       <use xlink:href="#DejaVuSans-68" x="1643.119141"/>
       <use xlink:href="#DejaVuSans-65" x="1706.498047"/>
       <use xlink:href="#DejaVuSans-6c" x="1768.021484"/>
       <use xlink:href="#DejaVuSans-6c" x="1795.804688"/>
      </g>
     </g>
    </g>
    <g id="ytick_3">
     <g id="text_3">
      <!-- Usf2 GP/Lmo4 GP+ islm_Major_island_of_Calleja -->
      <g style="fill: #262626" transform="translate(182.68 387.601558) scale(0.11662 -0.11662)">
       <defs>
        <path id="DejaVuSans-55" d="M 556 4666 
L 1191 4666 
L 1191 1831 
Q 1191 1081 1462 751 
Q 1734 422 2344 422 
Q 2950 422 3222 751 
Q 3494 1081 3494 1831 
L 3494 4666 
L 4128 4666 
L 4128 1753 
Q 4128 841 3676 375 
Q 3225 -91 2344 -91 
Q 1459 -91 1007 375 
Q 556 841 556 1753 
L 556 4666 
z
" transform="scale(0.015625)"/>
        <path id="DejaVuSans-66" d="M 2375 4863 
L 2375 4384 
L 1825 4384 
Q 1516 4384 1395 4259 
Q 1275 4134 1275 3809 
L 1275 3500 
L 2222 3500 
L 2222 3053 
L 1275 3053 
L 1275 0 
L 697 0 
L 697 3053 
L 147 3053 
L 147 3500 
L 697 3500 
L 697 3744 
Q 697 4328 969 4595 
Q 1241 4863 1831 4863 
L 2375 4863 
z
" transform="scale(0.015625)"/>
        <path id="DejaVuSans-32" d="M 1228 531 
L 3431 531 
L 3431 0 
L 469 0 
L 469 531 
Q 828 903 1448 1529 
Q 2069 2156 2228 2338 
Q 2531 2678 2651 2914 
Q 2772 3150 2772 3378 
Q 2772 3750 2511 3984 
Q 2250 4219 1831 4219 
Q 1534 4219 1204 4116 
Q 875 4013 500 3803 
L 500 4441 
Q 881 4594 1212 4672 
Q 1544 4750 1819 4750 
Q 2544 4750 2975 4387 
Q 3406 4025 3406 3419 
Q 3406 3131 3298 2873 
Q 3191 2616 2906 2266 
Q 2828 2175 2409 1742 
Q 1991 1309 1228 531 
z
" transform="scale(0.015625)"/>
        <path id="DejaVuSans-4c" d="M 628 4666 
L 1259 4666 
L 1259 531 
L 3531 531 
L 3531 0 
L 628 0 
L 628 4666 
z
" transform="scale(0.015625)"/>
        <path id="DejaVuSans-6f" d="M 1959 3097 
Q 1497 3097 1228 2736 
Q 959 2375 959 1747 
Q 959 1119 1226 758 
Q 1494 397 1959 397 
Q 2419 397 2687 759 
Q 2956 1122 2956 1747 
Q 2956 2369 2687 2733 
Q 2419 3097 1959 3097 
z
M 1959 3584 
Q 2709 3584 3137 3096 
Q 3566 2609 3566 1747 
Q 3566 888 3137 398 
Q 2709 -91 1959 -91 
Q 1206 -91 779 398 
Q 353 888 353 1747 
Q 353 2609 779 3096 
Q 1206 3584 1959 3584 
z
" transform="scale(0.015625)"/>
        <path id="DejaVuSans-34" d="M 2419 4116 
L 825 1625 
L 2419 1625 
L 2419 4116 
z
M 2253 4666 
L 3047 4666 
L 3047 1625 
L 3713 1625 
L 3713 1100 
L 3047 1100 
L 3047 0 
L 2419 0 
L 2419 1100 
L 313 1100 
L 313 1709 
L 2253 4666 
z
" transform="scale(0.015625)"/>
        <path id="DejaVuSans-4d" d="M 628 4666 
L 1569 4666 
L 2759 1491 
L 3956 4666 
L 4897 4666 
L 4897 0 
L 4281 0 
L 4281 4097 
L 3078 897 
L 2444 897 
L 1241 4097 
L 1241 0 
L 628 0 
L 628 4666 
z
" transform="scale(0.015625)"/>
        <path id="DejaVuSans-6a" d="M 603 3500 
L 1178 3500 
L 1178 -63 
Q 1178 -731 923 -1031 
Q 669 -1331 103 -1331 
L -116 -1331 
L -116 -844 
L 38 -844 
Q 366 -844 484 -692 
Q 603 -541 603 -63 
L 603 3500 
z
M 603 4863 
L 1178 4863 
L 1178 4134 
L 603 4134 
L 603 4863 
z
" transform="scale(0.015625)"/>
        <path id="DejaVuSans-72" d="M 2631 2963 
Q 2534 3019 2420 3045 
Q 2306 3072 2169 3072 
Q 1681 3072 1420 2755 
Q 1159 2438 1159 1844 
L 1159 0 
L 581 0 
L 581 3500 
L 1159 3500 
L 1159 2956 
Q 1341 3275 1631 3429 
Q 1922 3584 2338 3584 
Q 2397 3584 2469 3576 
Q 2541 3569 2628 3553 
L 2631 2963 
z
" transform="scale(0.015625)"/>
        <path id="DejaVuSans-6e" d="M 3513 2113 
L 3513 0 
L 2938 0 
L 2938 2094 
Q 2938 2591 2744 2837 
Q 2550 3084 2163 3084 
Q 1697 3084 1428 2787 
Q 1159 2491 1159 1978 
L 1159 0 
L 581 0 
L 581 3500 
L 1159 3500 
L 1159 2956 
Q 1366 3272 1645 3428 
Q 1925 3584 2291 3584 
Q 2894 3584 3203 3211 
Q 3513 2838 3513 2113 
z
" transform="scale(0.015625)"/>
       </defs>
       <use xlink:href="#DejaVuSans-55"/>
       <use xlink:href="#DejaVuSans-73" x="73.193359"/>
       <use xlink:href="#DejaVuSans-66" x="125.292969"/>
       <use xlink:href="#DejaVuSans-32" x="160.498047"/>
       <use xlink:href="#DejaVuSans-20" x="224.121094"/>
       <use xlink:href="#DejaVuSans-47" x="255.908203"/>
       <use xlink:href="#DejaVuSans-50" x="333.398438"/>
       <use xlink:href="#DejaVuSans-2f" x="393.701172"/>
       <use xlink:href="#DejaVuSans-4c" x="427.392578"/>
       <use xlink:href="#DejaVuSans-6d" x="483.105469"/>
       <use xlink:href="#DejaVuSans-6f" x="580.517578"/>
       <use xlink:href="#DejaVuSans-34" x="641.699219"/>
       <use xlink:href="#DejaVuSans-20" x="705.322266"/>
       <use xlink:href="#DejaVuSans-47" x="737.109375"/>
       <use xlink:href="#DejaVuSans-50" x="814.599609"/>
       <use xlink:href="#DejaVuSans-2b" x="874.902344"/>
       <use xlink:href="#DejaVuSans-20" x="958.691406"/>
       <use xlink:href="#DejaVuSans-69" x="990.478516"/>
       <use xlink:href="#DejaVuSans-73" x="1018.261719"/>
       <use xlink:href="#DejaVuSans-6c" x="1070.361328"/>
       <use xlink:href="#DejaVuSans-6d" x="1098.144531"/>
       <use xlink:href="#DejaVuSans-5f" x="1195.556641"/>
       <use xlink:href="#DejaVuSans-4d" x="1245.556641"/>
       <use xlink:href="#DejaVuSans-61" x="1331.835938"/>
       <use xlink:href="#DejaVuSans-6a" x="1393.115234"/>
       <use xlink:href="#DejaVuSans-6f" x="1420.898438"/>
       <use xlink:href="#DejaVuSans-72" x="1482.080078"/>
       <use xlink:href="#DejaVuSans-5f" x="1523.193359"/>
       <use xlink:href="#DejaVuSans-69" x="1573.193359"/>
       <use xlink:href="#DejaVuSans-73" x="1600.976562"/>
       <use xlink:href="#DejaVuSans-6c" x="1653.076172"/>
       <use xlink:href="#DejaVuSans-61" x="1680.859375"/>
       <use xlink:href="#DejaVuSans-6e" x="1742.138672"/>
       <use xlink:href="#DejaVuSans-64" x="1805.517578"/>
       <use xlink:href="#DejaVuSans-5f" x="1868.994141"/>
       <use xlink:href="#DejaVuSans-6f" x="1918.994141"/>
       <use xlink:href="#DejaVuSans-66" x="1980.175781"/>
       <use xlink:href="#DejaVuSans-5f" x="2015.380859"/>
       <use xlink:href="#DejaVuSans-43" x="2065.380859"/>
       <use xlink:href="#DejaVuSans-61" x="2135.205078"/>
       <use xlink:href="#DejaVuSans-6c" x="2196.484375"/>
       <use xlink:href="#DejaVuSans-6c" x="2224.267578"/>
       <use xlink:href="#DejaVuSans-65" x="2252.050781"/>
       <use xlink:href="#DejaVuSans-6a" x="2313.574219"/>
       <use xlink:href="#DejaVuSans-61" x="2341.357422"/>
      </g>
     </g>
    </g>
    <g id="ytick_4">
     <g id="text_4">
      <!-- Bcl11a GP/Brca1 GP+ Lateral_ventricle -->
      <g style="fill: #262626" transform="translate(182.68 366.656103) scale(0.11662 -0.11662)">
       <defs>
        <path id="DejaVuSans-76" d="M 191 3500 
L 800 3500 
L 1894 563 
L 2988 3500 
L 3597 3500 
L 2284 0 
L 1503 0 
L 191 3500 
z
" transform="scale(0.015625)"/>
       </defs>
       <use xlink:href="#DejaVuSans-42"/>
       <use xlink:href="#DejaVuSans-63" x="68.603516"/>
       <use xlink:href="#DejaVuSans-6c" x="123.583984"/>
       <use xlink:href="#DejaVuSans-31" x="151.367188"/>
       <use xlink:href="#DejaVuSans-31" x="214.990234"/>
       <use xlink:href="#DejaVuSans-61" x="278.613281"/>
       <use xlink:href="#DejaVuSans-20" x="339.892578"/>
       <use xlink:href="#DejaVuSans-47" x="371.679688"/>
       <use xlink:href="#DejaVuSans-50" x="449.169922"/>
       <use xlink:href="#DejaVuSans-2f" x="509.472656"/>
       <use xlink:href="#DejaVuSans-42" x="543.164062"/>
       <use xlink:href="#DejaVuSans-72" x="611.767578"/>
       <use xlink:href="#DejaVuSans-63" x="650.630859"/>
       <use xlink:href="#DejaVuSans-61" x="705.611328"/>
       <use xlink:href="#DejaVuSans-31" x="766.890625"/>
       <use xlink:href="#DejaVuSans-20" x="830.513672"/>
       <use xlink:href="#DejaVuSans-47" x="862.300781"/>
       <use xlink:href="#DejaVuSans-50" x="939.791016"/>
       <use xlink:href="#DejaVuSans-2b" x="1000.09375"/>
       <use xlink:href="#DejaVuSans-20" x="1083.882812"/>
       <use xlink:href="#DejaVuSans-4c" x="1115.669922"/>
       <use xlink:href="#DejaVuSans-61" x="1171.382812"/>
       <use xlink:href="#DejaVuSans-74" x="1232.662109"/>
       <use xlink:href="#DejaVuSans-65" x="1271.871094"/>
       <use xlink:href="#DejaVuSans-72" x="1333.394531"/>
       <use xlink:href="#DejaVuSans-61" x="1374.507812"/>
       <use xlink:href="#DejaVuSans-6c" x="1435.787109"/>
       <use xlink:href="#DejaVuSans-5f" x="1463.570312"/>
       <use xlink:href="#DejaVuSans-76" x="1513.570312"/>
       <use xlink:href="#DejaVuSans-65" x="1572.75"/>
       <use xlink:href="#DejaVuSans-6e" x="1634.273438"/>
       <use xlink:href="#DejaVuSans-74" x="1697.652344"/>
       <use xlink:href="#DejaVuSans-72" x="1736.861328"/>
       <use xlink:href="#DejaVuSans-69" x="1777.974609"/>
       <use xlink:href="#DejaVuSans-63" x="1805.757812"/>
       <use xlink:href="#DejaVuSans-6c" x="1860.738281"/>
       <use xlink:href="#DejaVuSans-65" x="1888.521484"/>
      </g>
     </g>
    </g>
    <g id="ytick_5">
     <g id="text_5">
      <!-- Smad3 GP/Col1a2 GP+ L1 -->
      <g style="fill: #262626" transform="translate(182.68 345.710649) scale(0.11662 -0.11662)">
       <use xlink:href="#DejaVuSans-53"/>
       <use xlink:href="#DejaVuSans-6d" x="63.476562"/>
       <use xlink:href="#DejaVuSans-61" x="160.888672"/>
       <use xlink:href="#DejaVuSans-64" x="222.167969"/>
       <use xlink:href="#DejaVuSans-33" x="285.644531"/>
       <use xlink:href="#DejaVuSans-20" x="349.267578"/>
       <use xlink:href="#DejaVuSans-47" x="381.054688"/>
       <use xlink:href="#DejaVuSans-50" x="458.544922"/>
       <use xlink:href="#DejaVuSans-2f" x="518.847656"/>
       <use xlink:href="#DejaVuSans-43" x="552.539062"/>
       <use xlink:href="#DejaVuSans-6f" x="622.363281"/>
       <use xlink:href="#DejaVuSans-6c" x="683.544922"/>
       <use xlink:href="#DejaVuSans-31" x="711.328125"/>
       <use xlink:href="#DejaVuSans-61" x="774.951172"/>
       <use xlink:href="#DejaVuSans-32" x="836.230469"/>
       <use xlink:href="#DejaVuSans-20" x="899.853516"/>
       <use xlink:href="#DejaVuSans-47" x="931.640625"/>
       <use xlink:href="#DejaVuSans-50" x="1009.130859"/>
       <use xlink:href="#DejaVuSans-2b" x="1069.433594"/>
       <use xlink:href="#DejaVuSans-20" x="1153.222656"/>
       <use xlink:href="#DejaVuSans-4c" x="1185.009766"/>
       <use xlink:href="#DejaVuSans-31" x="1240.722656"/>
      </g>
     </g>
    </g>
    <g id="ytick_6">
     <g id="text_6">
      <!-- Klf10 GP/Crx GP+ Lateral_septum_complex -->
      <g style="fill: #262626" transform="translate(182.68 324.765194) scale(0.11662 -0.11662)">
       <defs>
        <path id="DejaVuSans-4b" d="M 628 4666 
L 1259 4666 
L 1259 2694 
L 3353 4666 
L 4166 4666 
L 1850 2491 
L 4331 0 
L 3500 0 
L 1259 2247 
L 1259 0 
L 628 0 
L 628 4666 
z
" transform="scale(0.015625)"/>
        <path id="DejaVuSans-30" d="M 2034 4250 
Q 1547 4250 1301 3770 
Q 1056 3291 1056 2328 
Q 1056 1369 1301 889 
Q 1547 409 2034 409 
Q 2525 409 2770 889 
Q 3016 1369 3016 2328 
Q 3016 3291 2770 3770 
Q 2525 4250 2034 4250 
z
M 2034 4750 
Q 2819 4750 3233 4129 
Q 3647 3509 3647 2328 
Q 3647 1150 3233 529 
Q 2819 -91 2034 -91 
Q 1250 -91 836 529 
Q 422 1150 422 2328 
Q 422 3509 836 4129 
Q 1250 4750 2034 4750 
z
" transform="scale(0.015625)"/>
        <path id="DejaVuSans-70" d="M 1159 525 
L 1159 -1331 
L 581 -1331 
L 581 3500 
L 1159 3500 
L 1159 2969 
Q 1341 3281 1617 3432 
Q 1894 3584 2278 3584 
Q 2916 3584 3314 3078 
Q 3713 2572 3713 1747 
Q 3713 922 3314 415 
Q 2916 -91 2278 -91 
Q 1894 -91 1617 61 
Q 1341 213 1159 525 
z
M 3116 1747 
Q 3116 2381 2855 2742 
Q 2594 3103 2138 3103 
Q 1681 3103 1420 2742 
Q 1159 2381 1159 1747 
Q 1159 1113 1420 752 
Q 1681 391 2138 391 
Q 2594 391 2855 752 
Q 3116 1113 3116 1747 
z
" transform="scale(0.015625)"/>
        <path id="DejaVuSans-75" d="M 544 1381 
L 544 3500 
L 1119 3500 
L 1119 1403 
Q 1119 906 1312 657 
Q 1506 409 1894 409 
Q 2359 409 2629 706 
Q 2900 1003 2900 1516 
L 2900 3500 
L 3475 3500 
L 3475 0 
L 2900 0 
L 2900 538 
Q 2691 219 2414 64 
Q 2138 -91 1772 -91 
Q 1169 -91 856 284 
Q 544 659 544 1381 
z
M 1991 3584 
L 1991 3584 
z
" transform="scale(0.015625)"/>
       </defs>
       <use xlink:href="#DejaVuSans-4b"/>
       <use xlink:href="#DejaVuSans-6c" x="65.576172"/>
       <use xlink:href="#DejaVuSans-66" x="93.359375"/>
       <use xlink:href="#DejaVuSans-31" x="128.564453"/>
       <use xlink:href="#DejaVuSans-30" x="192.1875"/>
       <use xlink:href="#DejaVuSans-20" x="255.810547"/>
       <use xlink:href="#DejaVuSans-47" x="287.597656"/>
       <use xlink:href="#DejaVuSans-50" x="365.087891"/>
       <use xlink:href="#DejaVuSans-2f" x="425.390625"/>
       <use xlink:href="#DejaVuSans-43" x="459.082031"/>
       <use xlink:href="#DejaVuSans-72" x="528.90625"/>
       <use xlink:href="#DejaVuSans-78" x="567.394531"/>
       <use xlink:href="#DejaVuSans-20" x="626.574219"/>
       <use xlink:href="#DejaVuSans-47" x="658.361328"/>
       <use xlink:href="#DejaVuSans-50" x="735.851562"/>
       <use xlink:href="#DejaVuSans-2b" x="796.154297"/>
       <use xlink:href="#DejaVuSans-20" x="879.943359"/>
       <use xlink:href="#DejaVuSans-4c" x="911.730469"/>
       <use xlink:href="#DejaVuSans-61" x="967.443359"/>
       <use xlink:href="#DejaVuSans-74" x="1028.722656"/>
       <use xlink:href="#DejaVuSans-65" x="1067.931641"/>
       <use xlink:href="#DejaVuSans-72" x="1129.455078"/>
       <use xlink:href="#DejaVuSans-61" x="1170.568359"/>
       <use xlink:href="#DejaVuSans-6c" x="1231.847656"/>
       <use xlink:href="#DejaVuSans-5f" x="1259.630859"/>
       <use xlink:href="#DejaVuSans-73" x="1309.630859"/>
       <use xlink:href="#DejaVuSans-65" x="1361.730469"/>
       <use xlink:href="#DejaVuSans-70" x="1423.253906"/>
       <use xlink:href="#DejaVuSans-74" x="1486.730469"/>
       <use xlink:href="#DejaVuSans-75" x="1525.939453"/>
       <use xlink:href="#DejaVuSans-6d" x="1589.318359"/>
       <use xlink:href="#DejaVuSans-5f" x="1686.730469"/>
       <use xlink:href="#DejaVuSans-63" x="1736.730469"/>
       <use xlink:href="#DejaVuSans-6f" x="1791.710938"/>
       <use xlink:href="#DejaVuSans-6d" x="1852.892578"/>
       <use xlink:href="#DejaVuSans-70" x="1950.304688"/>
       <use xlink:href="#DejaVuSans-6c" x="2013.78125"/>
       <use xlink:href="#DejaVuSans-65" x="2041.564453"/>
       <use xlink:href="#DejaVuSans-78" x="2101.337891"/>
      </g>
     </g>
    </g>
    <g id="ytick_7">
     <g id="text_7">
      <!-- Lmo2 GP/Nkx6-1 GP+ Lateral_septal_nucleus -->
      <g style="fill: #262626" transform="translate(182.68 303.81974) scale(0.11662 -0.11662)">
       <defs>
        <path id="DejaVuSans-4e" d="M 628 4666 
L 1478 4666 
L 3547 763 
L 3547 4666 
L 4159 4666 
L 4159 0 
L 3309 0 
L 1241 3903 
L 1241 0 
L 628 0 
L 628 4666 
z
" transform="scale(0.015625)"/>
        <path id="DejaVuSans-6b" d="M 581 4863 
L 1159 4863 
L 1159 1991 
L 2875 3500 
L 3609 3500 
L 1753 1863 
L 3688 0 
L 2938 0 
L 1159 1709 
L 1159 0 
L 581 0 
L 581 4863 
z
" transform="scale(0.015625)"/>
        <path id="DejaVuSans-36" d="M 2113 2584 
Q 1688 2584 1439 2293 
Q 1191 2003 1191 1497 
Q 1191 994 1439 701 
Q 1688 409 2113 409 
Q 2538 409 2786 701 
Q 3034 994 3034 1497 
Q 3034 2003 2786 2293 
Q 2538 2584 2113 2584 
z
M 3366 4563 
L 3366 3988 
Q 3128 4100 2886 4159 
Q 2644 4219 2406 4219 
Q 1781 4219 1451 3797 
Q 1122 3375 1075 2522 
Q 1259 2794 1537 2939 
Q 1816 3084 2150 3084 
Q 2853 3084 3261 2657 
Q 3669 2231 3669 1497 
Q 3669 778 3244 343 
Q 2819 -91 2113 -91 
Q 1303 -91 875 529 
Q 447 1150 447 2328 
Q 447 3434 972 4092 
Q 1497 4750 2381 4750 
Q 2619 4750 2861 4703 
Q 3103 4656 3366 4563 
z
" transform="scale(0.015625)"/>
        <path id="DejaVuSans-2d" d="M 313 2009 
L 1997 2009 
L 1997 1497 
L 313 1497 
L 313 2009 
z
" transform="scale(0.015625)"/>
       </defs>
       <use xlink:href="#DejaVuSans-4c"/>
       <use xlink:href="#DejaVuSans-6d" x="55.712891"/>
       <use xlink:href="#DejaVuSans-6f" x="153.125"/>
       <use xlink:href="#DejaVuSans-32" x="214.306641"/>
       <use xlink:href="#DejaVuSans-20" x="277.929688"/>
       <use xlink:href="#DejaVuSans-47" x="309.716797"/>
       <use xlink:href="#DejaVuSans-50" x="387.207031"/>
       <use xlink:href="#DejaVuSans-2f" x="447.509766"/>
       <use xlink:href="#DejaVuSans-4e" x="481.201172"/>
       <use xlink:href="#DejaVuSans-6b" x="556.005859"/>
       <use xlink:href="#DejaVuSans-78" x="613.916016"/>
       <use xlink:href="#DejaVuSans-36" x="673.095703"/>
       <use xlink:href="#DejaVuSans-2d" x="736.71875"/>
       <use xlink:href="#DejaVuSans-31" x="772.802734"/>
       <use xlink:href="#DejaVuSans-20" x="836.425781"/>
       <use xlink:href="#DejaVuSans-47" x="868.212891"/>
       <use xlink:href="#DejaVuSans-50" x="945.703125"/>
       <use xlink:href="#DejaVuSans-2b" x="1006.005859"/>
       <use xlink:href="#DejaVuSans-20" x="1089.794922"/>
       <use xlink:href="#DejaVuSans-4c" x="1121.582031"/>
       <use xlink:href="#DejaVuSans-61" x="1177.294922"/>
       <use xlink:href="#DejaVuSans-74" x="1238.574219"/>
       <use xlink:href="#DejaVuSans-65" x="1277.783203"/>
       <use xlink:href="#DejaVuSans-72" x="1339.306641"/>
       <use xlink:href="#DejaVuSans-61" x="1380.419922"/>
       <use xlink:href="#DejaVuSans-6c" x="1441.699219"/>
       <use xlink:href="#DejaVuSans-5f" x="1469.482422"/>
       <use xlink:href="#DejaVuSans-73" x="1519.482422"/>
       <use xlink:href="#DejaVuSans-65" x="1571.582031"/>
       <use xlink:href="#DejaVuSans-70" x="1633.105469"/>
       <use xlink:href="#DejaVuSans-74" x="1696.582031"/>
       <use xlink:href="#DejaVuSans-61" x="1735.791016"/>
       <use xlink:href="#DejaVuSans-6c" x="1797.070312"/>
       <use xlink:href="#DejaVuSans-5f" x="1824.853516"/>
       <use xlink:href="#DejaVuSans-6e" x="1874.853516"/>
       <use xlink:href="#DejaVuSans-75" x="1938.232422"/>
       <use xlink:href="#DejaVuSans-63" x="2001.611328"/>
       <use xlink:href="#DejaVuSans-6c" x="2056.591797"/>
       <use xlink:href="#DejaVuSans-65" x="2084.375"/>
       <use xlink:href="#DejaVuSans-75" x="2145.898438"/>
       <use xlink:href="#DejaVuSans-73" x="2209.277344"/>
      </g>
     </g>
    </g>
    <g id="ytick_8">
     <g id="text_8">
      <!-- Neurog3 GP/Nkx2-2 GP+ Anterior_commisure -->
      <g style="fill: #262626" transform="translate(182.68 282.874285) scale(0.11662 -0.11662)">
       <defs>
        <path id="DejaVuSans-67" d="M 2906 1791 
Q 2906 2416 2648 2759 
Q 2391 3103 1925 3103 
Q 1463 3103 1205 2759 
Q 947 2416 947 1791 
Q 947 1169 1205 825 
Q 1463 481 1925 481 
Q 2391 481 2648 825 
Q 2906 1169 2906 1791 
z
M 3481 434 
Q 3481 -459 3084 -895 
Q 2688 -1331 1869 -1331 
Q 1566 -1331 1297 -1286 
Q 1028 -1241 775 -1147 
L 775 -588 
Q 1028 -725 1275 -790 
Q 1522 -856 1778 -856 
Q 2344 -856 2625 -561 
Q 2906 -266 2906 331 
L 2906 616 
Q 2728 306 2450 153 
Q 2172 0 1784 0 
Q 1141 0 747 490 
Q 353 981 353 1791 
Q 353 2603 747 3093 
Q 1141 3584 1784 3584 
Q 2172 3584 2450 3431 
Q 2728 3278 2906 2969 
L 2906 3500 
L 3481 3500 
L 3481 434 
z
" transform="scale(0.015625)"/>
       </defs>
       <use xlink:href="#DejaVuSans-4e"/>
       <use xlink:href="#DejaVuSans-65" x="74.804688"/>
       <use xlink:href="#DejaVuSans-75" x="136.328125"/>
       <use xlink:href="#DejaVuSans-72" x="199.707031"/>
       <use xlink:href="#DejaVuSans-6f" x="238.570312"/>
       <use xlink:href="#DejaVuSans-67" x="299.751953"/>
       <use xlink:href="#DejaVuSans-33" x="363.228516"/>
       <use xlink:href="#DejaVuSans-20" x="426.851562"/>
       <use xlink:href="#DejaVuSans-47" x="458.638672"/>
       <use xlink:href="#DejaVuSans-50" x="536.128906"/>
       <use xlink:href="#DejaVuSans-2f" x="596.431641"/>
       <use xlink:href="#DejaVuSans-4e" x="630.123047"/>
       <use xlink:href="#DejaVuSans-6b" x="704.927734"/>
       <use xlink:href="#DejaVuSans-78" x="762.837891"/>
       <use xlink:href="#DejaVuSans-32" x="822.017578"/>
       <use xlink:href="#DejaVuSans-2d" x="885.640625"/>
       <use xlink:href="#DejaVuSans-32" x="921.724609"/>
       <use xlink:href="#DejaVuSans-20" x="985.347656"/>
       <use xlink:href="#DejaVuSans-47" x="1017.134766"/>
       <use xlink:href="#DejaVuSans-50" x="1094.625"/>
       <use xlink:href="#DejaVuSans-2b" x="1154.927734"/>
       <use xlink:href="#DejaVuSans-20" x="1238.716797"/>
       <use xlink:href="#DejaVuSans-41" x="1270.503906"/>
       <use xlink:href="#DejaVuSans-6e" x="1338.912109"/>
       <use xlink:href="#DejaVuSans-74" x="1402.291016"/>
       <use xlink:href="#DejaVuSans-65" x="1441.5"/>
       <use xlink:href="#DejaVuSans-72" x="1503.023438"/>
       <use xlink:href="#DejaVuSans-69" x="1544.136719"/>
       <use xlink:href="#DejaVuSans-6f" x="1571.919922"/>
       <use xlink:href="#DejaVuSans-72" x="1633.101562"/>
       <use xlink:href="#DejaVuSans-5f" x="1674.214844"/>
       <use xlink:href="#DejaVuSans-63" x="1724.214844"/>
       <use xlink:href="#DejaVuSans-6f" x="1779.195312"/>
       <use xlink:href="#DejaVuSans-6d" x="1840.376953"/>
       <use xlink:href="#DejaVuSans-6d" x="1937.789062"/>
       <use xlink:href="#DejaVuSans-69" x="2035.201172"/>
       <use xlink:href="#DejaVuSans-73" x="2062.984375"/>
       <use xlink:href="#DejaVuSans-75" x="2115.083984"/>
       <use xlink:href="#DejaVuSans-72" x="2178.462891"/>
       <use xlink:href="#DejaVuSans-65" x="2217.326172"/>
      </g>
     </g>
    </g>
    <g id="ytick_9">
     <g id="text_9">
      <!-- Rps19 GP/L-Aspartic acid GP+ Corpus_callosum -->
      <g style="fill: #262626" transform="translate(182.68 261.928831) scale(0.11662 -0.11662)">
       <defs>
        <path id="DejaVuSans-39" d="M 703 97 
L 703 672 
Q 941 559 1184 500 
Q 1428 441 1663 441 
Q 2288 441 2617 861 
Q 2947 1281 2994 2138 
Q 2813 1869 2534 1725 
Q 2256 1581 1919 1581 
Q 1219 1581 811 2004 
Q 403 2428 403 3163 
Q 403 3881 828 4315 
Q 1253 4750 1959 4750 
Q 2769 4750 3195 4129 
Q 3622 3509 3622 2328 
Q 3622 1225 3098 567 
Q 2575 -91 1691 -91 
Q 1453 -91 1209 -44 
Q 966 3 703 97 
z
M 1959 2075 
Q 2384 2075 2632 2365 
Q 2881 2656 2881 3163 
Q 2881 3666 2632 3958 
Q 2384 4250 1959 4250 
Q 1534 4250 1286 3958 
Q 1038 3666 1038 3163 
Q 1038 2656 1286 2365 
Q 1534 2075 1959 2075 
z
" transform="scale(0.015625)"/>
       </defs>
       <use xlink:href="#DejaVuSans-52"/>
       <use xlink:href="#DejaVuSans-70" x="69.482422"/>
       <use xlink:href="#DejaVuSans-73" x="132.958984"/>
       <use xlink:href="#DejaVuSans-31" x="185.058594"/>
       <use xlink:href="#DejaVuSans-39" x="248.681641"/>
       <use xlink:href="#DejaVuSans-20" x="312.304688"/>
       <use xlink:href="#DejaVuSans-47" x="344.091797"/>
       <use xlink:href="#DejaVuSans-50" x="421.582031"/>
       <use xlink:href="#DejaVuSans-2f" x="481.884766"/>
       <use xlink:href="#DejaVuSans-4c" x="515.576172"/>
       <use xlink:href="#DejaVuSans-2d" x="569.539062"/>
       <use xlink:href="#DejaVuSans-41" x="603.373047"/>
       <use xlink:href="#DejaVuSans-73" x="671.78125"/>
       <use xlink:href="#DejaVuSans-70" x="723.880859"/>
       <use xlink:href="#DejaVuSans-61" x="787.357422"/>
       <use xlink:href="#DejaVuSans-72" x="848.636719"/>
       <use xlink:href="#DejaVuSans-74" x="889.75"/>
       <use xlink:href="#DejaVuSans-69" x="928.958984"/>
       <use xlink:href="#DejaVuSans-63" x="956.742188"/>
       <use xlink:href="#DejaVuSans-20" x="1011.722656"/>
       <use xlink:href="#DejaVuSans-61" x="1043.509766"/>
       <use xlink:href="#DejaVuSans-63" x="1104.789062"/>
       <use xlink:href="#DejaVuSans-69" x="1159.769531"/>
       <use xlink:href="#DejaVuSans-64" x="1187.552734"/>
       <use xlink:href="#DejaVuSans-20" x="1251.029297"/>
       <use xlink:href="#DejaVuSans-47" x="1282.816406"/>
       <use xlink:href="#DejaVuSans-50" x="1360.306641"/>
       <use xlink:href="#DejaVuSans-2b" x="1420.609375"/>
       <use xlink:href="#DejaVuSans-20" x="1504.398438"/>
       <use xlink:href="#DejaVuSans-43" x="1536.185547"/>
       <use xlink:href="#DejaVuSans-6f" x="1606.009766"/>
       <use xlink:href="#DejaVuSans-72" x="1667.191406"/>
       <use xlink:href="#DejaVuSans-70" x="1708.304688"/>
       <use xlink:href="#DejaVuSans-75" x="1771.78125"/>
       <use xlink:href="#DejaVuSans-73" x="1835.160156"/>
       <use xlink:href="#DejaVuSans-5f" x="1887.259766"/>
       <use xlink:href="#DejaVuSans-63" x="1937.259766"/>
       <use xlink:href="#DejaVuSans-61" x="1992.240234"/>
       <use xlink:href="#DejaVuSans-6c" x="2053.519531"/>
       <use xlink:href="#DejaVuSans-6c" x="2081.302734"/>
       <use xlink:href="#DejaVuSans-6f" x="2109.085938"/>
       <use xlink:href="#DejaVuSans-73" x="2170.267578"/>
       <use xlink:href="#DejaVuSans-75" x="2222.367188"/>
       <use xlink:href="#DejaVuSans-6d" x="2285.746094"/>
      </g>
     </g>
    </g>
    <g id="ytick_10">
     <g id="text_10">
      <!-- Gfi1b GP/Ep300 GP+ STR_caudoputamen_medial -->
      <g style="fill: #262626" transform="translate(182.68 240.983376) scale(0.11662 -0.11662)">
       <defs>
        <path id="DejaVuSans-62" d="M 3116 1747 
Q 3116 2381 2855 2742 
Q 2594 3103 2138 3103 
Q 1681 3103 1420 2742 
Q 1159 2381 1159 1747 
Q 1159 1113 1420 752 
Q 1681 391 2138 391 
Q 2594 391 2855 752 
Q 3116 1113 3116 1747 
z
M 1159 2969 
Q 1341 3281 1617 3432 
Q 1894 3584 2278 3584 
Q 2916 3584 3314 3078 
Q 3713 2572 3713 1747 
Q 3713 922 3314 415 
Q 2916 -91 2278 -91 
Q 1894 -91 1617 61 
Q 1341 213 1159 525 
L 1159 0 
L 581 0 
L 581 4863 
L 1159 4863 
L 1159 2969 
z
" transform="scale(0.015625)"/>
        <path id="DejaVuSans-45" d="M 628 4666 
L 3578 4666 
L 3578 4134 
L 1259 4134 
L 1259 2753 
L 3481 2753 
L 3481 2222 
L 1259 2222 
L 1259 531 
L 3634 531 
L 3634 0 
L 628 0 
L 628 4666 
z
" transform="scale(0.015625)"/>
       </defs>
       <use xlink:href="#DejaVuSans-47"/>
       <use xlink:href="#DejaVuSans-66" x="77.490234"/>
       <use xlink:href="#DejaVuSans-69" x="112.695312"/>
       <use xlink:href="#DejaVuSans-31" x="140.478516"/>
       <use xlink:href="#DejaVuSans-62" x="204.101562"/>
       <use xlink:href="#DejaVuSans-20" x="267.578125"/>
       <use xlink:href="#DejaVuSans-47" x="299.365234"/>
       <use xlink:href="#DejaVuSans-50" x="376.855469"/>
       <use xlink:href="#DejaVuSans-2f" x="437.158203"/>
       <use xlink:href="#DejaVuSans-45" x="470.849609"/>
       <use xlink:href="#DejaVuSans-70" x="534.033203"/>
       <use xlink:href="#DejaVuSans-33" x="597.509766"/>
       <use xlink:href="#DejaVuSans-30" x="661.132812"/>
       <use xlink:href="#DejaVuSans-30" x="724.755859"/>
       <use xlink:href="#DejaVuSans-20" x="788.378906"/>
       <use xlink:href="#DejaVuSans-47" x="820.166016"/>
       <use xlink:href="#DejaVuSans-50" x="897.65625"/>
       <use xlink:href="#DejaVuSans-2b" x="957.958984"/>
       <use xlink:href="#DejaVuSans-20" x="1041.748047"/>
       <use xlink:href="#DejaVuSans-53" x="1073.535156"/>
       <use xlink:href="#DejaVuSans-54" x="1137.011719"/>
       <use xlink:href="#DejaVuSans-52" x="1198.095703"/>
       <use xlink:href="#DejaVuSans-5f" x="1267.578125"/>
       <use xlink:href="#DejaVuSans-63" x="1317.578125"/>
       <use xlink:href="#DejaVuSans-61" x="1372.558594"/>
       <use xlink:href="#DejaVuSans-75" x="1433.837891"/>
       <use xlink:href="#DejaVuSans-64" x="1497.216797"/>
       <use xlink:href="#DejaVuSans-6f" x="1560.693359"/>
       <use xlink:href="#DejaVuSans-70" x="1621.875"/>
       <use xlink:href="#DejaVuSans-75" x="1685.351562"/>
       <use xlink:href="#DejaVuSans-74" x="1748.730469"/>
       <use xlink:href="#DejaVuSans-61" x="1787.939453"/>
       <use xlink:href="#DejaVuSans-6d" x="1849.21875"/>
       <use xlink:href="#DejaVuSans-65" x="1946.630859"/>
       <use xlink:href="#DejaVuSans-6e" x="2008.154297"/>
       <use xlink:href="#DejaVuSans-5f" x="2071.533203"/>
       <use xlink:href="#DejaVuSans-6d" x="2121.533203"/>
       <use xlink:href="#DejaVuSans-65" x="2218.945312"/>
       <use xlink:href="#DejaVuSans-64" x="2280.46875"/>
       <use xlink:href="#DejaVuSans-69" x="2343.945312"/>
       <use xlink:href="#DejaVuSans-61" x="2371.728516"/>
       <use xlink:href="#DejaVuSans-6c" x="2433.007812"/>
      </g>
     </g>
    </g>
    <g id="ytick_11">
     <g id="text_11">
      <!-- Meis2 GP/Ebf1 GP+ STR_ACB_core -->
      <g style="fill: #262626" transform="translate(182.68 220.037922) scale(0.11662 -0.11662)">
       <use xlink:href="#DejaVuSans-4d"/>
       <use xlink:href="#DejaVuSans-65" x="86.279297"/>
       <use xlink:href="#DejaVuSans-69" x="147.802734"/>
       <use xlink:href="#DejaVuSans-73" x="175.585938"/>
       <use xlink:href="#DejaVuSans-32" x="227.685547"/>
       <use xlink:href="#DejaVuSans-20" x="291.308594"/>
       <use xlink:href="#DejaVuSans-47" x="323.095703"/>
       <use xlink:href="#DejaVuSans-50" x="400.585938"/>
       <use xlink:href="#DejaVuSans-2f" x="460.888672"/>
       <use xlink:href="#DejaVuSans-45" x="494.580078"/>
       <use xlink:href="#DejaVuSans-62" x="557.763672"/>
       <use xlink:href="#DejaVuSans-66" x="621.240234"/>
       <use xlink:href="#DejaVuSans-31" x="656.445312"/>
       <use xlink:href="#DejaVuSans-20" x="720.068359"/>
       <use xlink:href="#DejaVuSans-47" x="751.855469"/>
       <use xlink:href="#DejaVuSans-50" x="829.345703"/>
       <use xlink:href="#DejaVuSans-2b" x="889.648438"/>
       <use xlink:href="#DejaVuSans-20" x="973.4375"/>
       <use xlink:href="#DejaVuSans-53" x="1005.224609"/>
       <use xlink:href="#DejaVuSans-54" x="1068.701172"/>
       <use xlink:href="#DejaVuSans-52" x="1129.785156"/>
       <use xlink:href="#DejaVuSans-5f" x="1199.267578"/>
       <use xlink:href="#DejaVuSans-41" x="1249.267578"/>
       <use xlink:href="#DejaVuSans-43" x="1315.925781"/>
       <use xlink:href="#DejaVuSans-42" x="1385.75"/>
       <use xlink:href="#DejaVuSans-5f" x="1454.353516"/>
       <use xlink:href="#DejaVuSans-63" x="1504.353516"/>
       <use xlink:href="#DejaVuSans-6f" x="1559.333984"/>
       <use xlink:href="#DejaVuSans-72" x="1620.515625"/>
       <use xlink:href="#DejaVuSans-65" x="1659.378906"/>
      </g>
     </g>
    </g>
    <g id="ytick_12">
     <g id="text_12">
      <!-- Addon16 GP/Irf8 GP+ STR_caudoputamen_lateral -->
      <g style="fill: #262626" transform="translate(182.68 199.092467) scale(0.11662 -0.11662)">
       <defs>
        <path id="DejaVuSans-49" d="M 628 4666 
L 1259 4666 
L 1259 0 
L 628 0 
L 628 4666 
z
" transform="scale(0.015625)"/>
        <path id="DejaVuSans-38" d="M 2034 2216 
Q 1584 2216 1326 1975 
Q 1069 1734 1069 1313 
Q 1069 891 1326 650 
Q 1584 409 2034 409 
Q 2484 409 2743 651 
Q 3003 894 3003 1313 
Q 3003 1734 2745 1975 
Q 2488 2216 2034 2216 
z
M 1403 2484 
Q 997 2584 770 2862 
Q 544 3141 544 3541 
Q 544 4100 942 4425 
Q 1341 4750 2034 4750 
Q 2731 4750 3128 4425 
Q 3525 4100 3525 3541 
Q 3525 3141 3298 2862 
Q 3072 2584 2669 2484 
Q 3125 2378 3379 2068 
Q 3634 1759 3634 1313 
Q 3634 634 3220 271 
Q 2806 -91 2034 -91 
Q 1263 -91 848 271 
Q 434 634 434 1313 
Q 434 1759 690 2068 
Q 947 2378 1403 2484 
z
M 1172 3481 
Q 1172 3119 1398 2916 
Q 1625 2713 2034 2713 
Q 2441 2713 2670 2916 
Q 2900 3119 2900 3481 
Q 2900 3844 2670 4047 
Q 2441 4250 2034 4250 
Q 1625 4250 1398 4047 
Q 1172 3844 1172 3481 
z
" transform="scale(0.015625)"/>
       </defs>
       <use xlink:href="#DejaVuSans-41"/>
       <use xlink:href="#DejaVuSans-64" x="66.658203"/>
       <use xlink:href="#DejaVuSans-64" x="130.134766"/>
       <use xlink:href="#DejaVuSans-6f" x="193.611328"/>
       <use xlink:href="#DejaVuSans-6e" x="254.792969"/>
       <use xlink:href="#DejaVuSans-31" x="318.171875"/>
       <use xlink:href="#DejaVuSans-36" x="381.794922"/>
       <use xlink:href="#DejaVuSans-20" x="445.417969"/>
       <use xlink:href="#DejaVuSans-47" x="477.205078"/>
       <use xlink:href="#DejaVuSans-50" x="554.695312"/>
       <use xlink:href="#DejaVuSans-2f" x="614.998047"/>
       <use xlink:href="#DejaVuSans-49" x="648.689453"/>
       <use xlink:href="#DejaVuSans-72" x="678.181641"/>
       <use xlink:href="#DejaVuSans-66" x="719.294922"/>
       <use xlink:href="#DejaVuSans-38" x="754.5"/>
       <use xlink:href="#DejaVuSans-20" x="818.123047"/>
       <use xlink:href="#DejaVuSans-47" x="849.910156"/>
       <use xlink:href="#DejaVuSans-50" x="927.400391"/>
       <use xlink:href="#DejaVuSans-2b" x="987.703125"/>
       <use xlink:href="#DejaVuSans-20" x="1071.492188"/>
       <use xlink:href="#DejaVuSans-53" x="1103.279297"/>
       <use xlink:href="#DejaVuSans-54" x="1166.755859"/>
       <use xlink:href="#DejaVuSans-52" x="1227.839844"/>
       <use xlink:href="#DejaVuSans-5f" x="1297.322266"/>
       <use xlink:href="#DejaVuSans-63" x="1347.322266"/>
       <use xlink:href="#DejaVuSans-61" x="1402.302734"/>
       <use xlink:href="#DejaVuSans-75" x="1463.582031"/>
       <use xlink:href="#DejaVuSans-64" x="1526.960938"/>
       <use xlink:href="#DejaVuSans-6f" x="1590.4375"/>
       <use xlink:href="#DejaVuSans-70" x="1651.619141"/>
       <use xlink:href="#DejaVuSans-75" x="1715.095703"/>
       <use xlink:href="#DejaVuSans-74" x="1778.474609"/>
       <use xlink:href="#DejaVuSans-61" x="1817.683594"/>
       <use xlink:href="#DejaVuSans-6d" x="1878.962891"/>
       <use xlink:href="#DejaVuSans-65" x="1976.375"/>
       <use xlink:href="#DejaVuSans-6e" x="2037.898438"/>
       <use xlink:href="#DejaVuSans-5f" x="2101.277344"/>
       <use xlink:href="#DejaVuSans-6c" x="2151.277344"/>
       <use xlink:href="#DejaVuSans-61" x="2179.060547"/>
       <use xlink:href="#DejaVuSans-74" x="2240.339844"/>
       <use xlink:href="#DejaVuSans-65" x="2279.548828"/>
       <use xlink:href="#DejaVuSans-72" x="2341.072266"/>
       <use xlink:href="#DejaVuSans-61" x="2382.185547"/>
       <use xlink:href="#DejaVuSans-6c" x="2443.464844"/>
      </g>
     </g>
    </g>
    <g id="ytick_13">
     <g id="text_13">
      <!-- Hlf GP/Neurod2 GP+ L1_L4_vasc_olg -->
      <g style="fill: #262626" transform="translate(182.68 178.147013) scale(0.11662 -0.11662)">
       <defs>
        <path id="DejaVuSans-48" d="M 628 4666 
L 1259 4666 
L 1259 2753 
L 3553 2753 
L 3553 4666 
L 4184 4666 
L 4184 0 
L 3553 0 
L 3553 2222 
L 1259 2222 
L 1259 0 
L 628 0 
L 628 4666 
z
" transform="scale(0.015625)"/>
       </defs>
       <use xlink:href="#DejaVuSans-48"/>
       <use xlink:href="#DejaVuSans-6c" x="75.195312"/>
       <use xlink:href="#DejaVuSans-66" x="102.978516"/>
       <use xlink:href="#DejaVuSans-20" x="138.183594"/>
       <use xlink:href="#DejaVuSans-47" x="169.970703"/>
       <use xlink:href="#DejaVuSans-50" x="247.460938"/>
       <use xlink:href="#DejaVuSans-2f" x="307.763672"/>
       <use xlink:href="#DejaVuSans-4e" x="341.455078"/>
       <use xlink:href="#DejaVuSans-65" x="416.259766"/>
       <use xlink:href="#DejaVuSans-75" x="477.783203"/>
       <use xlink:href="#DejaVuSans-72" x="541.162109"/>
       <use xlink:href="#DejaVuSans-6f" x="580.025391"/>
       <use xlink:href="#DejaVuSans-64" x="641.207031"/>
       <use xlink:href="#DejaVuSans-32" x="704.683594"/>
       <use xlink:href="#DejaVuSans-20" x="768.306641"/>
       <use xlink:href="#DejaVuSans-47" x="800.09375"/>
       <use xlink:href="#DejaVuSans-50" x="877.583984"/>
       <use xlink:href="#DejaVuSans-2b" x="937.886719"/>
       <use xlink:href="#DejaVuSans-20" x="1021.675781"/>
       <use xlink:href="#DejaVuSans-4c" x="1053.462891"/>
       <use xlink:href="#DejaVuSans-31" x="1109.175781"/>
       <use xlink:href="#DejaVuSans-5f" x="1172.798828"/>
       <use xlink:href="#DejaVuSans-4c" x="1222.798828"/>
       <use xlink:href="#DejaVuSans-34" x="1278.511719"/>
       <use xlink:href="#DejaVuSans-5f" x="1342.134766"/>
       <use xlink:href="#DejaVuSans-76" x="1392.134766"/>
       <use xlink:href="#DejaVuSans-61" x="1451.314453"/>
       <use xlink:href="#DejaVuSans-73" x="1512.59375"/>
       <use xlink:href="#DejaVuSans-63" x="1564.693359"/>
       <use xlink:href="#DejaVuSans-5f" x="1619.673828"/>
       <use xlink:href="#DejaVuSans-6f" x="1669.673828"/>
       <use xlink:href="#DejaVuSans-6c" x="1730.855469"/>
       <use xlink:href="#DejaVuSans-67" x="1758.638672"/>
      </g>
     </g>
    </g>
    <g id="ytick_14">
     <g id="text_14">
      <!-- Nr1i3 GP/Lmx1a GP+ L1-L4 -->
      <g style="fill: #262626" transform="translate(182.68 157.201558) scale(0.11662 -0.11662)">
       <use xlink:href="#DejaVuSans-4e"/>
       <use xlink:href="#DejaVuSans-72" x="74.804688"/>
       <use xlink:href="#DejaVuSans-31" x="115.917969"/>
       <use xlink:href="#DejaVuSans-69" x="179.541016"/>
       <use xlink:href="#DejaVuSans-33" x="207.324219"/>
       <use xlink:href="#DejaVuSans-20" x="270.947266"/>
       <use xlink:href="#DejaVuSans-47" x="302.734375"/>
       <use xlink:href="#DejaVuSans-50" x="380.224609"/>
       <use xlink:href="#DejaVuSans-2f" x="440.527344"/>
       <use xlink:href="#DejaVuSans-4c" x="474.21875"/>
       <use xlink:href="#DejaVuSans-6d" x="529.931641"/>
       <use xlink:href="#DejaVuSans-78" x="627.34375"/>
       <use xlink:href="#DejaVuSans-31" x="686.523438"/>
       <use xlink:href="#DejaVuSans-61" x="750.146484"/>
       <use xlink:href="#DejaVuSans-20" x="811.425781"/>
       <use xlink:href="#DejaVuSans-47" x="843.212891"/>
       <use xlink:href="#DejaVuSans-50" x="920.703125"/>
       <use xlink:href="#DejaVuSans-2b" x="981.005859"/>
       <use xlink:href="#DejaVuSans-20" x="1064.794922"/>
       <use xlink:href="#DejaVuSans-4c" x="1096.582031"/>
       <use xlink:href="#DejaVuSans-31" x="1152.294922"/>
       <use xlink:href="#DejaVuSans-2d" x="1215.917969"/>
       <use xlink:href="#DejaVuSans-4c" x="1252.001953"/>
       <use xlink:href="#DejaVuSans-34" x="1307.714844"/>
      </g>
     </g>
    </g>
    <g id="ytick_15">
     <g id="text_15">
      <!-- Pax2 GP/L-Glutamine GP+ L5-L6 -->
      <g style="fill: #262626" transform="translate(182.68 136.256103) scale(0.11662 -0.11662)">
       <defs>
        <path id="DejaVuSans-35" d="M 691 4666 
L 3169 4666 
L 3169 4134 
L 1269 4134 
L 1269 2991 
Q 1406 3038 1543 3061 
Q 1681 3084 1819 3084 
Q 2600 3084 3056 2656 
Q 3513 2228 3513 1497 
Q 3513 744 3044 326 
Q 2575 -91 1722 -91 
Q 1428 -91 1123 -41 
Q 819 9 494 109 
L 494 744 
Q 775 591 1075 516 
Q 1375 441 1709 441 
Q 2250 441 2565 725 
Q 2881 1009 2881 1497 
Q 2881 1984 2565 2268 
Q 2250 2553 1709 2553 
Q 1456 2553 1204 2497 
Q 953 2441 691 2322 
L 691 4666 
z
" transform="scale(0.015625)"/>
       </defs>
       <use xlink:href="#DejaVuSans-50"/>
       <use xlink:href="#DejaVuSans-61" x="55.802734"/>
       <use xlink:href="#DejaVuSans-78" x="117.082031"/>
       <use xlink:href="#DejaVuSans-32" x="176.261719"/>
       <use xlink:href="#DejaVuSans-20" x="239.884766"/>
       <use xlink:href="#DejaVuSans-47" x="271.671875"/>
       <use xlink:href="#DejaVuSans-50" x="349.162109"/>
       <use xlink:href="#DejaVuSans-2f" x="409.464844"/>
       <use xlink:href="#DejaVuSans-4c" x="443.15625"/>
       <use xlink:href="#DejaVuSans-2d" x="497.119141"/>
       <use xlink:href="#DejaVuSans-47" x="536.828125"/>
       <use xlink:href="#DejaVuSans-6c" x="614.318359"/>
       <use xlink:href="#DejaVuSans-75" x="642.101562"/>
       <use xlink:href="#DejaVuSans-74" x="705.480469"/>
       <use xlink:href="#DejaVuSans-61" x="744.689453"/>
       <use xlink:href="#DejaVuSans-6d" x="805.96875"/>
       <use xlink:href="#DejaVuSans-69" x="903.380859"/>
       <use xlink:href="#DejaVuSans-6e" x="931.164062"/>
       <use xlink:href="#DejaVuSans-65" x="994.542969"/>
       <use xlink:href="#DejaVuSans-20" x="1056.066406"/>
       <use xlink:href="#DejaVuSans-47" x="1087.853516"/>
       <use xlink:href="#DejaVuSans-50" x="1165.34375"/>
       <use xlink:href="#DejaVuSans-2b" x="1225.646484"/>
       <use xlink:href="#DejaVuSans-20" x="1309.435547"/>
       <use xlink:href="#DejaVuSans-4c" x="1341.222656"/>
       <use xlink:href="#DejaVuSans-35" x="1396.935547"/>
       <use xlink:href="#DejaVuSans-2d" x="1460.558594"/>
       <use xlink:href="#DejaVuSans-4c" x="1496.642578"/>
       <use xlink:href="#DejaVuSans-36" x="1552.355469"/>
      </g>
     </g>
    </g>
    <g id="ytick_16">
     <g id="text_16">
      <!-- Zbtb7a GP/Myf5 GP+ L5 -->
      <g style="fill: #262626" transform="translate(182.68 115.310649) scale(0.11662 -0.11662)">
       <defs>
        <path id="DejaVuSans-5a" d="M 359 4666 
L 4025 4666 
L 4025 4184 
L 1075 531 
L 4097 531 
L 4097 0 
L 288 0 
L 288 481 
L 3238 4134 
L 359 4134 
L 359 4666 
z
" transform="scale(0.015625)"/>
        <path id="DejaVuSans-37" d="M 525 4666 
L 3525 4666 
L 3525 4397 
L 1831 0 
L 1172 0 
L 2766 4134 
L 525 4134 
L 525 4666 
z
" transform="scale(0.015625)"/>
        <path id="DejaVuSans-79" d="M 2059 -325 
Q 1816 -950 1584 -1140 
Q 1353 -1331 966 -1331 
L 506 -1331 
L 506 -850 
L 844 -850 
Q 1081 -850 1212 -737 
Q 1344 -625 1503 -206 
L 1606 56 
L 191 3500 
L 800 3500 
L 1894 763 
L 2988 3500 
L 3597 3500 
L 2059 -325 
z
" transform="scale(0.015625)"/>
       </defs>
       <use xlink:href="#DejaVuSans-5a"/>
       <use xlink:href="#DejaVuSans-62" x="68.505859"/>
       <use xlink:href="#DejaVuSans-74" x="131.982422"/>
       <use xlink:href="#DejaVuSans-62" x="171.191406"/>
       <use xlink:href="#DejaVuSans-37" x="234.667969"/>
       <use xlink:href="#DejaVuSans-61" x="298.291016"/>
       <use xlink:href="#DejaVuSans-20" x="359.570312"/>
       <use xlink:href="#DejaVuSans-47" x="391.357422"/>
       <use xlink:href="#DejaVuSans-50" x="468.847656"/>
       <use xlink:href="#DejaVuSans-2f" x="529.150391"/>
       <use xlink:href="#DejaVuSans-4d" x="562.841797"/>
       <use xlink:href="#DejaVuSans-79" x="649.121094"/>
       <use xlink:href="#DejaVuSans-66" x="708.300781"/>
       <use xlink:href="#DejaVuSans-35" x="743.505859"/>
       <use xlink:href="#DejaVuSans-20" x="807.128906"/>
       <use xlink:href="#DejaVuSans-47" x="838.916016"/>
       <use xlink:href="#DejaVuSans-50" x="916.40625"/>
       <use xlink:href="#DejaVuSans-2b" x="976.708984"/>
       <use xlink:href="#DejaVuSans-20" x="1060.498047"/>
       <use xlink:href="#DejaVuSans-4c" x="1092.285156"/>
       <use xlink:href="#DejaVuSans-35" x="1147.998047"/>
      </g>
     </g>
    </g>
    <g id="ytick_17">
     <g id="text_17">
      <!-- Sox5 GP/Taf1 GP+ L5-L6 -->
      <g style="fill: #262626" transform="translate(182.68 94.365194) scale(0.11662 -0.11662)">
       <use xlink:href="#DejaVuSans-53"/>
       <use xlink:href="#DejaVuSans-6f" x="63.476562"/>
       <use xlink:href="#DejaVuSans-78" x="121.533203"/>
       <use xlink:href="#DejaVuSans-35" x="180.712891"/>
       <use xlink:href="#DejaVuSans-20" x="244.335938"/>
       <use xlink:href="#DejaVuSans-47" x="276.123047"/>
       <use xlink:href="#DejaVuSans-50" x="353.613281"/>
       <use xlink:href="#DejaVuSans-2f" x="413.916016"/>
       <use xlink:href="#DejaVuSans-54" x="447.607422"/>
       <use xlink:href="#DejaVuSans-61" x="492.191406"/>
       <use xlink:href="#DejaVuSans-66" x="553.470703"/>
       <use xlink:href="#DejaVuSans-31" x="588.675781"/>
       <use xlink:href="#DejaVuSans-20" x="652.298828"/>
       <use xlink:href="#DejaVuSans-47" x="684.085938"/>
       <use xlink:href="#DejaVuSans-50" x="761.576172"/>
       <use xlink:href="#DejaVuSans-2b" x="821.878906"/>
       <use xlink:href="#DejaVuSans-20" x="905.667969"/>
       <use xlink:href="#DejaVuSans-4c" x="937.455078"/>
       <use xlink:href="#DejaVuSans-35" x="993.167969"/>
       <use xlink:href="#DejaVuSans-2d" x="1056.791016"/>
       <use xlink:href="#DejaVuSans-4c" x="1092.875"/>
       <use xlink:href="#DejaVuSans-36" x="1148.587891"/>
      </g>
     </g>
    </g>
    <g id="ytick_18">
     <g id="text_18">
      <!-- Plxna2 GP/Hoxb1 GP+ L2-L3 -->
      <g style="fill: #262626" transform="translate(182.68 73.41974) scale(0.11662 -0.11662)">
       <use xlink:href="#DejaVuSans-50"/>
       <use xlink:href="#DejaVuSans-6c" x="60.302734"/>
       <use xlink:href="#DejaVuSans-78" x="88.085938"/>
       <use xlink:href="#DejaVuSans-6e" x="147.265625"/>
       <use xlink:href="#DejaVuSans-61" x="210.644531"/>
       <use xlink:href="#DejaVuSans-32" x="271.923828"/>
       <use xlink:href="#DejaVuSans-20" x="335.546875"/>
       <use xlink:href="#DejaVuSans-47" x="367.333984"/>
       <use xlink:href="#DejaVuSans-50" x="444.824219"/>
       <use xlink:href="#DejaVuSans-2f" x="505.126953"/>
       <use xlink:href="#DejaVuSans-48" x="538.818359"/>
       <use xlink:href="#DejaVuSans-6f" x="614.013672"/>
       <use xlink:href="#DejaVuSans-78" x="672.070312"/>
       <use xlink:href="#DejaVuSans-62" x="731.25"/>
       <use xlink:href="#DejaVuSans-31" x="794.726562"/>
       <use xlink:href="#DejaVuSans-20" x="858.349609"/>
       <use xlink:href="#DejaVuSans-47" x="890.136719"/>
       <use xlink:href="#DejaVuSans-50" x="967.626953"/>
       <use xlink:href="#DejaVuSans-2b" x="1027.929688"/>
       <use xlink:href="#DejaVuSans-20" x="1111.71875"/>
       <use xlink:href="#DejaVuSans-4c" x="1143.505859"/>
       <use xlink:href="#DejaVuSans-32" x="1199.21875"/>
       <use xlink:href="#DejaVuSans-2d" x="1262.841797"/>
       <use xlink:href="#DejaVuSans-4c" x="1298.925781"/>
       <use xlink:href="#DejaVuSans-33" x="1354.638672"/>
      </g>
     </g>
    </g>
    <g id="ytick_19">
     <g id="text_19">
      <!-- Foxa1 GP/Id3 GP+ L6a-L6b -->
      <g style="fill: #262626" transform="translate(182.68 52.474285) scale(0.11662 -0.11662)">
       <defs>
        <path id="DejaVuSans-46" d="M 628 4666 
L 3309 4666 
L 3309 4134 
L 1259 4134 
L 1259 2759 
L 3109 2759 
L 3109 2228 
L 1259 2228 
L 1259 0 
L 628 0 
L 628 4666 
z
" transform="scale(0.015625)"/>
       </defs>
       <use xlink:href="#DejaVuSans-46"/>
       <use xlink:href="#DejaVuSans-6f" x="53.894531"/>
       <use xlink:href="#DejaVuSans-78" x="111.951172"/>
       <use xlink:href="#DejaVuSans-61" x="171.130859"/>
       <use xlink:href="#DejaVuSans-31" x="232.410156"/>
       <use xlink:href="#DejaVuSans-20" x="296.033203"/>
       <use xlink:href="#DejaVuSans-47" x="327.820312"/>
       <use xlink:href="#DejaVuSans-50" x="405.310547"/>
       <use xlink:href="#DejaVuSans-2f" x="465.613281"/>
       <use xlink:href="#DejaVuSans-49" x="499.304688"/>
       <use xlink:href="#DejaVuSans-64" x="528.796875"/>
       <use xlink:href="#DejaVuSans-33" x="592.273438"/>
       <use xlink:href="#DejaVuSans-20" x="655.896484"/>
       <use xlink:href="#DejaVuSans-47" x="687.683594"/>
       <use xlink:href="#DejaVuSans-50" x="765.173828"/>
       <use xlink:href="#DejaVuSans-2b" x="825.476562"/>
       <use xlink:href="#DejaVuSans-20" x="909.265625"/>
       <use xlink:href="#DejaVuSans-4c" x="941.052734"/>
       <use xlink:href="#DejaVuSans-36" x="996.765625"/>
       <use xlink:href="#DejaVuSans-61" x="1060.388672"/>
       <use xlink:href="#DejaVuSans-2d" x="1121.667969"/>
       <use xlink:href="#DejaVuSans-4c" x="1157.751953"/>
       <use xlink:href="#DejaVuSans-36" x="1213.464844"/>
       <use xlink:href="#DejaVuSans-62" x="1277.087891"/>
      </g>
     </g>
    </g>
    <g id="ytick_20">
     <g id="text_20">
      <!-- L5-L6 -->
      <g style="fill: #262626" transform="translate(182.68 31.528831) scale(0.11662 -0.11662)">
       <use xlink:href="#DejaVuSans-4c"/>
       <use xlink:href="#DejaVuSans-35" x="55.712891"/>
       <use xlink:href="#DejaVuSans-2d" x="119.335938"/>
       <use xlink:href="#DejaVuSans-4c" x="155.419922"/>
       <use xlink:href="#DejaVuSans-36" x="211.132812"/>
      </g>
     </g>
    </g>
   </g>
   <g id="line2d_1">
    <path d="M 168.021818 404.116364 
L 165.121781 404.116364 
L 165.121781 383.170909 
L 168.021818 383.170909 
" clip-path="url(#p51348c0732)" style="fill: none; stroke: #555555; stroke-width: 1.5; stroke-linecap: round"/>
   </g>
   <g id="line2d_2">
    <path d="M 168.021818 425.061818 
L 152.008836 425.061818 
L 152.008836 393.643636 
L 165.121781 393.643636 
" clip-path="url(#p51348c0732)" style="fill: none; stroke: #555555; stroke-width: 1.5; stroke-linecap: round"/>
   </g>
   <g id="line2d_3">
    <path d="M 168.021818 320.334545 
L 162.172689 320.334545 
L 162.172689 299.389091 
L 168.021818 299.389091 
" clip-path="url(#p51348c0732)" style="fill: none; stroke: #555555; stroke-width: 1.5; stroke-linecap: round"/>
   </g>
   <g id="line2d_4">
    <path d="M 168.021818 341.28 
L 156.237506 341.28 
L 156.237506 309.861818 
L 162.172689 309.861818 
" clip-path="url(#p51348c0732)" style="fill: none; stroke: #555555; stroke-width: 1.5; stroke-linecap: round"/>
   </g>
   <g id="line2d_5">
    <path d="M 168.021818 362.225455 
L 151.354141 362.225455 
L 151.354141 325.570909 
L 156.237506 325.570909 
" clip-path="url(#p51348c0732)" style="fill: none; stroke: #555555; stroke-width: 1.5; stroke-linecap: round"/>
   </g>
   <g id="line2d_6">
    <path d="M 152.008836 409.352727 
L 116.691942 409.352727 
L 116.691942 343.898182 
L 151.354141 343.898182 
" clip-path="url(#p51348c0732)" style="fill: none; stroke: #555555; stroke-width: 1.5; stroke-linecap: round"/>
   </g>
   <g id="line2d_7">
    <path d="M 168.021818 278.443636 
L 161.514911 278.443636 
L 161.514911 257.498182 
L 168.021818 257.498182 
" clip-path="url(#p51348c0732)" style="fill: none; stroke: #555555; stroke-width: 1.5; stroke-linecap: round"/>
   </g>
   <g id="line2d_8">
    <path d="M 168.021818 215.607273 
L 161.3572 215.607273 
L 161.3572 194.661818 
L 168.021818 194.661818 
" clip-path="url(#p51348c0732)" style="fill: none; stroke: #555555; stroke-width: 1.5; stroke-linecap: round"/>
   </g>
   <g id="line2d_9">
    <path d="M 168.021818 236.552727 
L 146.074622 236.552727 
L 146.074622 205.134545 
L 161.3572 205.134545 
" clip-path="url(#p51348c0732)" style="fill: none; stroke: #555555; stroke-width: 1.5; stroke-linecap: round"/>
   </g>
   <g id="line2d_10">
    <path d="M 161.514911 267.970909 
L 96.624968 267.970909 
L 96.624968 220.843636 
L 146.074622 220.843636 
" clip-path="url(#p51348c0732)" style="fill: none; stroke: #555555; stroke-width: 1.5; stroke-linecap: round"/>
   </g>
   <g id="line2d_11">
    <path d="M 116.691942 376.625455 
L 59.726892 376.625455 
L 59.726892 244.407273 
L 96.624968 244.407273 
" clip-path="url(#p51348c0732)" style="fill: none; stroke: #555555; stroke-width: 1.5; stroke-linecap: round"/>
   </g>
   <g id="line2d_12">
    <path d="M 168.021818 173.716364 
L 165.963026 173.716364 
L 165.963026 152.770909 
L 168.021818 152.770909 
" clip-path="url(#p51348c0732)" style="fill: none; stroke: #555555; stroke-width: 1.5; stroke-linecap: round"/>
   </g>
   <g id="line2d_13">
    <path d="M 168.021818 131.825455 
L 158.971545 131.825455 
L 158.971545 110.88 
L 168.021818 110.88 
" clip-path="url(#p51348c0732)" style="fill: none; stroke: #555555; stroke-width: 1.5; stroke-linecap: round"/>
   </g>
   <g id="line2d_14">
    <path d="M 165.963026 163.243636 
L 134.966287 163.243636 
L 134.966287 121.352727 
L 158.971545 121.352727 
" clip-path="url(#p51348c0732)" style="fill: none; stroke: #555555; stroke-width: 1.5; stroke-linecap: round"/>
   </g>
   <g id="line2d_15">
    <path d="M 168.021818 89.934545 
L 159.497094 89.934545 
L 159.497094 68.989091 
L 168.021818 68.989091 
" clip-path="url(#p51348c0732)" style="fill: none; stroke: #555555; stroke-width: 1.5; stroke-linecap: round"/>
   </g>
   <g id="line2d_16">
    <path d="M 168.021818 48.043636 
L 155.42601 48.043636 
L 155.42601 27.098182 
L 168.021818 27.098182 
" clip-path="url(#p51348c0732)" style="fill: none; stroke: #555555; stroke-width: 1.5; stroke-linecap: round"/>
   </g>
   <g id="line2d_17">
    <path d="M 159.497094 79.461818 
L 128.902198 79.461818 
L 128.902198 37.570909 
L 155.42601 37.570909 
" clip-path="url(#p51348c0732)" style="fill: none; stroke: #555555; stroke-width: 1.5; stroke-linecap: round"/>
   </g>
   <g id="line2d_18">
    <path d="M 134.966287 142.298182 
L 59.326587 142.298182 
L 59.326587 58.516364 
L 128.902198 58.516364 
" clip-path="url(#p51348c0732)" style="fill: none; stroke: #555555; stroke-width: 1.5; stroke-linecap: round"/>
   </g>
   <g id="line2d_19">
    <path d="M 59.726892 310.516364 
L 14.858182 310.516364 
L 14.858182 100.407273 
L 59.326587 100.407273 
" clip-path="url(#p51348c0732)" style="fill: none; stroke: #555555; stroke-width: 1.5; stroke-linecap: round"/>
   </g>
  </g>
 </g>
 <defs>
  <clipPath id="p51348c0732">
   <rect x="7.2" y="7.2" width="168.48" height="437.76"/>
  </clipPath>
 </defs>
</svg>
