<?xml version="1.0" encoding="utf-8" standalone="no"?>
<!DOCTYPE svg PUBLIC "-//W3C//DTD SVG 1.1//EN"
  "http://www.w3.org/Graphics/SVG/1.1/DTD/svg11.dtd">
<svg xmlns:xlink="http://www.w3.org/1999/xlink" width="510.854684pt" height="452.16pt" viewBox="0 0 510.854684 452.16" xmlns="http://www.w3.org/2000/svg" version="1.1">
 <metadata>
  <rdf:RDF xmlns:dc="http://purl.org/dc/elements/1.1/" xmlns:cc="http://creativecommons.org/ns#" xmlns:rdf="http://www.w3.org/1999/02/22-rdf-syntax-ns#">
   <cc:Work>
    <dc:type rdf:resource="http://purl.org/dc/dcmitype/StillImage"/>
    <dc:date>2023-09-06T17:06:17.808766</dc:date>
    <dc:format>image/svg+xml</dc:format>
    <dc:creator>
     <cc:Agent>
      <dc:title>Matplotlib v3.7.2, https://matplotlib.org/</dc:title>
     </cc:Agent>
    </dc:creator>
   </cc:Work>
  </rdf:RDF>
 </metadata>
 <defs>
  <style type="text/css">*{stroke-linejoin: round; stroke-linecap: butt}</style>
 </defs>
 <g id="figure_1">
  <g id="patch_1">
   <path d="M -0 452.16 
L 510.854684 452.16 
L 510.854684 0 
L -0 0 
z
" style="fill: #ffffff"/>
  </g>
  <g id="axes_1">
   <g id="patch_2">
    <path d="M 7.2 444.96 
L 175.68 444.96 
L 175.68 7.2 
L 7.2 7.2 
z
" style="fill: #ffffff"/>
   </g>
   <g id="matplotlib.axis_1">
    <g id="xtick_1"/>
    <g id="xtick_2"/>
    <g id="xtick_3"/>
    <g id="xtick_4"/>
   </g>
   <g id="matplotlib.axis_2">
    <g id="ytick_1">
     <g id="text_1">
      <!-- Fgf18 GP/Dll1 GP+ Presomitic Mesoderm -->
      <g style="fill: #262626" transform="translate(182.68 429.492467) scale(0.11662 -0.11662)">
       <defs>
        <path id="DejaVuSans-46" d="M 628 4666 
L 3309 4666 
L 3309 4134 
L 1259 4134 
L 1259 2759 
L 3109 2759 
L 3109 2228 
L 1259 2228 
L 1259 0 
L 628 0 
L 628 4666 
z
" transform="scale(0.015625)"/>
        <path id="DejaVuSans-67" d="M 2906 1791 
Q 2906 2416 2648 2759 
Q 2391 3103 1925 3103 
Q 1463 3103 1205 2759 
Q 947 2416 947 1791 
Q 947 1169 1205 825 
Q 1463 481 1925 481 
Q 2391 481 2648 825 
Q 2906 1169 2906 1791 
z
M 3481 434 
Q 3481 -459 3084 -895 
Q 2688 -1331 1869 -1331 
Q 1566 -1331 1297 -1286 
Q 1028 -1241 775 -1147 
L 775 -588 
Q 1028 -725 1275 -790 
Q 1522 -856 1778 -856 
Q 2344 -856 2625 -561 
Q 2906 -266 2906 331 
L 2906 616 
Q 2728 306 2450 153 
Q 2172 0 1784 0 
Q 1141 0 747 490 
Q 353 981 353 1791 
Q 353 2603 747 3093 
Q 1141 3584 1784 3584 
Q 2172 3584 2450 3431 
Q 2728 3278 2906 2969 
L 2906 3500 
L 3481 3500 
L 3481 434 
z
" transform="scale(0.015625)"/>
        <path id="DejaVuSans-66" d="M 2375 4863 
L 2375 4384 
L 1825 4384 
Q 1516 4384 1395 4259 
Q 1275 4134 1275 3809 
L 1275 3500 
L 2222 3500 
L 2222 3053 
L 1275 3053 
L 1275 0 
L 697 0 
L 697 3053 
L 147 3053 
L 147 3500 
L 697 3500 
L 697 3744 
Q 697 4328 969 4595 
Q 1241 4863 1831 4863 
L 2375 4863 
z
" transform="scale(0.015625)"/>
        <path id="DejaVuSans-31" d="M 794 531 
L 1825 531 
L 1825 4091 
L 703 3866 
L 703 4441 
L 1819 4666 
L 2450 4666 
L 2450 531 
L 3481 531 
L 3481 0 
L 794 0 
L 794 531 
z
" transform="scale(0.015625)"/>
        <path id="DejaVuSans-38" d="M 2034 2216 
Q 1584 2216 1326 1975 
Q 1069 1734 1069 1313 
Q 1069 891 1326 650 
Q 1584 409 2034 409 
Q 2484 409 2743 651 
Q 3003 894 3003 1313 
Q 3003 1734 2745 1975 
Q 2488 2216 2034 2216 
z
M 1403 2484 
Q 997 2584 770 2862 
Q 544 3141 544 3541 
Q 544 4100 942 4425 
Q 1341 4750 2034 4750 
Q 2731 4750 3128 4425 
Q 3525 4100 3525 3541 
Q 3525 3141 3298 2862 
Q 3072 2584 2669 2484 
Q 3125 2378 3379 2068 
Q 3634 1759 3634 1313 
Q 3634 634 3220 271 
Q 2806 -91 2034 -91 
Q 1263 -91 848 271 
Q 434 634 434 1313 
Q 434 1759 690 2068 
Q 947 2378 1403 2484 
z
M 1172 3481 
Q 1172 3119 1398 2916 
Q 1625 2713 2034 2713 
Q 2441 2713 2670 2916 
Q 2900 3119 2900 3481 
Q 2900 3844 2670 4047 
Q 2441 4250 2034 4250 
Q 1625 4250 1398 4047 
Q 1172 3844 1172 3481 
z
" transform="scale(0.015625)"/>
        <path id="DejaVuSans-20" transform="scale(0.015625)"/>
        <path id="DejaVuSans-47" d="M 3809 666 
L 3809 1919 
L 2778 1919 
L 2778 2438 
L 4434 2438 
L 4434 434 
Q 4069 175 3628 42 
Q 3188 -91 2688 -91 
Q 1594 -91 976 548 
Q 359 1188 359 2328 
Q 359 3472 976 4111 
Q 1594 4750 2688 4750 
Q 3144 4750 3555 4637 
Q 3966 4525 4313 4306 
L 4313 3634 
Q 3963 3931 3569 4081 
Q 3175 4231 2741 4231 
Q 1884 4231 1454 3753 
Q 1025 3275 1025 2328 
Q 1025 1384 1454 906 
Q 1884 428 2741 428 
Q 3075 428 3337 486 
Q 3600 544 3809 666 
z
" transform="scale(0.015625)"/>
        <path id="DejaVuSans-50" d="M 1259 4147 
L 1259 2394 
L 2053 2394 
Q 2494 2394 2734 2622 
Q 2975 2850 2975 3272 
Q 2975 3691 2734 3919 
Q 2494 4147 2053 4147 
L 1259 4147 
z
M 628 4666 
L 2053 4666 
Q 2838 4666 3239 4311 
Q 3641 3956 3641 3272 
Q 3641 2581 3239 2228 
Q 2838 1875 2053 1875 
L 1259 1875 
L 1259 0 
L 628 0 
L 628 4666 
z
" transform="scale(0.015625)"/>
        <path id="DejaVuSans-2f" d="M 1625 4666 
L 2156 4666 
L 531 -594 
L 0 -594 
L 1625 4666 
z
" transform="scale(0.015625)"/>
        <path id="DejaVuSans-44" d="M 1259 4147 
L 1259 519 
L 2022 519 
Q 2988 519 3436 956 
Q 3884 1394 3884 2338 
Q 3884 3275 3436 3711 
Q 2988 4147 2022 4147 
L 1259 4147 
z
M 628 4666 
L 1925 4666 
Q 3281 4666 3915 4102 
Q 4550 3538 4550 2338 
Q 4550 1131 3912 565 
Q 3275 0 1925 0 
L 628 0 
L 628 4666 
z
" transform="scale(0.015625)"/>
        <path id="DejaVuSans-6c" d="M 603 4863 
L 1178 4863 
L 1178 0 
L 603 0 
L 603 4863 
z
" transform="scale(0.015625)"/>
        <path id="DejaVuSans-2b" d="M 2944 4013 
L 2944 2272 
L 4684 2272 
L 4684 1741 
L 2944 1741 
L 2944 0 
L 2419 0 
L 2419 1741 
L 678 1741 
L 678 2272 
L 2419 2272 
L 2419 4013 
L 2944 4013 
z
" transform="scale(0.015625)"/>
        <path id="DejaVuSans-72" d="M 2631 2963 
Q 2534 3019 2420 3045 
Q 2306 3072 2169 3072 
Q 1681 3072 1420 2755 
Q 1159 2438 1159 1844 
L 1159 0 
L 581 0 
L 581 3500 
L 1159 3500 
L 1159 2956 
Q 1341 3275 1631 3429 
Q 1922 3584 2338 3584 
Q 2397 3584 2469 3576 
Q 2541 3569 2628 3553 
L 2631 2963 
z
" transform="scale(0.015625)"/>
        <path id="DejaVuSans-65" d="M 3597 1894 
L 3597 1613 
L 953 1613 
Q 991 1019 1311 708 
Q 1631 397 2203 397 
Q 2534 397 2845 478 
Q 3156 559 3463 722 
L 3463 178 
Q 3153 47 2828 -22 
Q 2503 -91 2169 -91 
Q 1331 -91 842 396 
Q 353 884 353 1716 
Q 353 2575 817 3079 
Q 1281 3584 2069 3584 
Q 2775 3584 3186 3129 
Q 3597 2675 3597 1894 
z
M 3022 2063 
Q 3016 2534 2758 2815 
Q 2500 3097 2075 3097 
Q 1594 3097 1305 2825 
Q 1016 2553 972 2059 
L 3022 2063 
z
" transform="scale(0.015625)"/>
        <path id="DejaVuSans-73" d="M 2834 3397 
L 2834 2853 
Q 2591 2978 2328 3040 
Q 2066 3103 1784 3103 
Q 1356 3103 1142 2972 
Q 928 2841 928 2578 
Q 928 2378 1081 2264 
Q 1234 2150 1697 2047 
L 1894 2003 
Q 2506 1872 2764 1633 
Q 3022 1394 3022 966 
Q 3022 478 2636 193 
Q 2250 -91 1575 -91 
Q 1294 -91 989 -36 
Q 684 19 347 128 
L 347 722 
Q 666 556 975 473 
Q 1284 391 1588 391 
Q 1994 391 2212 530 
Q 2431 669 2431 922 
Q 2431 1156 2273 1281 
Q 2116 1406 1581 1522 
L 1381 1569 
Q 847 1681 609 1914 
Q 372 2147 372 2553 
Q 372 3047 722 3315 
Q 1072 3584 1716 3584 
Q 2034 3584 2315 3537 
Q 2597 3491 2834 3397 
z
" transform="scale(0.015625)"/>
        <path id="DejaVuSans-6f" d="M 1959 3097 
Q 1497 3097 1228 2736 
Q 959 2375 959 1747 
Q 959 1119 1226 758 
Q 1494 397 1959 397 
Q 2419 397 2687 759 
Q 2956 1122 2956 1747 
Q 2956 2369 2687 2733 
Q 2419 3097 1959 3097 
z
M 1959 3584 
Q 2709 3584 3137 3096 
Q 3566 2609 3566 1747 
Q 3566 888 3137 398 
Q 2709 -91 1959 -91 
Q 1206 -91 779 398 
Q 353 888 353 1747 
Q 353 2609 779 3096 
Q 1206 3584 1959 3584 
z
" transform="scale(0.015625)"/>
        <path id="DejaVuSans-6d" d="M 3328 2828 
Q 3544 3216 3844 3400 
Q 4144 3584 4550 3584 
Q 5097 3584 5394 3201 
Q 5691 2819 5691 2113 
L 5691 0 
L 5113 0 
L 5113 2094 
Q 5113 2597 4934 2840 
Q 4756 3084 4391 3084 
Q 3944 3084 3684 2787 
Q 3425 2491 3425 1978 
L 3425 0 
L 2847 0 
L 2847 2094 
Q 2847 2600 2669 2842 
Q 2491 3084 2119 3084 
Q 1678 3084 1418 2786 
Q 1159 2488 1159 1978 
L 1159 0 
L 581 0 
L 581 3500 
L 1159 3500 
L 1159 2956 
Q 1356 3278 1631 3431 
Q 1906 3584 2284 3584 
Q 2666 3584 2933 3390 
Q 3200 3197 3328 2828 
z
" transform="scale(0.015625)"/>
        <path id="DejaVuSans-69" d="M 603 3500 
L 1178 3500 
L 1178 0 
L 603 0 
L 603 3500 
z
M 603 4863 
L 1178 4863 
L 1178 4134 
L 603 4134 
L 603 4863 
z
" transform="scale(0.015625)"/>
        <path id="DejaVuSans-74" d="M 1172 4494 
L 1172 3500 
L 2356 3500 
L 2356 3053 
L 1172 3053 
L 1172 1153 
Q 1172 725 1289 603 
Q 1406 481 1766 481 
L 2356 481 
L 2356 0 
L 1766 0 
Q 1100 0 847 248 
Q 594 497 594 1153 
L 594 3053 
L 172 3053 
L 172 3500 
L 594 3500 
L 594 4494 
L 1172 4494 
z
" transform="scale(0.015625)"/>
        <path id="DejaVuSans-63" d="M 3122 3366 
L 3122 2828 
Q 2878 2963 2633 3030 
Q 2388 3097 2138 3097 
Q 1578 3097 1268 2742 
Q 959 2388 959 1747 
Q 959 1106 1268 751 
Q 1578 397 2138 397 
Q 2388 397 2633 464 
Q 2878 531 3122 666 
L 3122 134 
Q 2881 22 2623 -34 
Q 2366 -91 2075 -91 
Q 1284 -91 818 406 
Q 353 903 353 1747 
Q 353 2603 823 3093 
Q 1294 3584 2113 3584 
Q 2378 3584 2631 3529 
Q 2884 3475 3122 3366 
z
" transform="scale(0.015625)"/>
        <path id="DejaVuSans-4d" d="M 628 4666 
L 1569 4666 
L 2759 1491 
L 3956 4666 
L 4897 4666 
L 4897 0 
L 4281 0 
L 4281 4097 
L 3078 897 
L 2444 897 
L 1241 4097 
L 1241 0 
L 628 0 
L 628 4666 
z
" transform="scale(0.015625)"/>
        <path id="DejaVuSans-64" d="M 2906 2969 
L 2906 4863 
L 3481 4863 
L 3481 0 
L 2906 0 
L 2906 525 
Q 2725 213 2448 61 
Q 2172 -91 1784 -91 
Q 1150 -91 751 415 
Q 353 922 353 1747 
Q 353 2572 751 3078 
Q 1150 3584 1784 3584 
Q 2172 3584 2448 3432 
Q 2725 3281 2906 2969 
z
M 947 1747 
Q 947 1113 1208 752 
Q 1469 391 1925 391 
Q 2381 391 2643 752 
Q 2906 1113 2906 1747 
Q 2906 2381 2643 2742 
Q 2381 3103 1925 3103 
Q 1469 3103 1208 2742 
Q 947 2381 947 1747 
z
" transform="scale(0.015625)"/>
       </defs>
       <use xlink:href="#DejaVuSans-46"/>
       <use xlink:href="#DejaVuSans-67" x="57.519531"/>
       <use xlink:href="#DejaVuSans-66" x="120.996094"/>
       <use xlink:href="#DejaVuSans-31" x="156.201172"/>
       <use xlink:href="#DejaVuSans-38" x="219.824219"/>
       <use xlink:href="#DejaVuSans-20" x="283.447266"/>
       <use xlink:href="#DejaVuSans-47" x="315.234375"/>
       <use xlink:href="#DejaVuSans-50" x="392.724609"/>
       <use xlink:href="#DejaVuSans-2f" x="453.027344"/>
       <use xlink:href="#DejaVuSans-44" x="486.71875"/>
       <use xlink:href="#DejaVuSans-6c" x="563.720703"/>
       <use xlink:href="#DejaVuSans-6c" x="591.503906"/>
       <use xlink:href="#DejaVuSans-31" x="619.287109"/>
       <use xlink:href="#DejaVuSans-20" x="682.910156"/>
       <use xlink:href="#DejaVuSans-47" x="714.697266"/>
       <use xlink:href="#DejaVuSans-50" x="792.1875"/>
       <use xlink:href="#DejaVuSans-2b" x="852.490234"/>
       <use xlink:href="#DejaVuSans-20" x="936.279297"/>
       <use xlink:href="#DejaVuSans-50" x="968.066406"/>
       <use xlink:href="#DejaVuSans-72" x="1026.619141"/>
       <use xlink:href="#DejaVuSans-65" x="1065.482422"/>
       <use xlink:href="#DejaVuSans-73" x="1127.005859"/>
       <use xlink:href="#DejaVuSans-6f" x="1179.105469"/>
       <use xlink:href="#DejaVuSans-6d" x="1240.287109"/>
       <use xlink:href="#DejaVuSans-69" x="1337.699219"/>
       <use xlink:href="#DejaVuSans-74" x="1365.482422"/>
       <use xlink:href="#DejaVuSans-69" x="1404.691406"/>
       <use xlink:href="#DejaVuSans-63" x="1432.474609"/>
       <use xlink:href="#DejaVuSans-20" x="1487.455078"/>
       <use xlink:href="#DejaVuSans-4d" x="1519.242188"/>
       <use xlink:href="#DejaVuSans-65" x="1605.521484"/>
       <use xlink:href="#DejaVuSans-73" x="1667.044922"/>
       <use xlink:href="#DejaVuSans-6f" x="1719.144531"/>
       <use xlink:href="#DejaVuSans-64" x="1780.326172"/>
       <use xlink:href="#DejaVuSans-65" x="1843.802734"/>
       <use xlink:href="#DejaVuSans-72" x="1905.326172"/>
       <use xlink:href="#DejaVuSans-6d" x="1944.689453"/>
      </g>
     </g>
    </g>
    <g id="ytick_2">
     <g id="text_2">
      <!-- Saa1 GP/Il6st GP+ Muscles -->
      <g style="fill: #262626" transform="translate(182.68 408.547013) scale(0.11662 -0.11662)">
       <defs>
        <path id="DejaVuSans-53" d="M 3425 4513 
L 3425 3897 
Q 3066 4069 2747 4153 
Q 2428 4238 2131 4238 
Q 1616 4238 1336 4038 
Q 1056 3838 1056 3469 
Q 1056 3159 1242 3001 
Q 1428 2844 1947 2747 
L 2328 2669 
Q 3034 2534 3370 2195 
Q 3706 1856 3706 1288 
Q 3706 609 3251 259 
Q 2797 -91 1919 -91 
Q 1588 -91 1214 -16 
Q 841 59 441 206 
L 441 856 
Q 825 641 1194 531 
Q 1563 422 1919 422 
Q 2459 422 2753 634 
Q 3047 847 3047 1241 
Q 3047 1584 2836 1778 
Q 2625 1972 2144 2069 
L 1759 2144 
Q 1053 2284 737 2584 
Q 422 2884 422 3419 
Q 422 4038 858 4394 
Q 1294 4750 2059 4750 
Q 2388 4750 2728 4690 
Q 3069 4631 3425 4513 
z
" transform="scale(0.015625)"/>
        <path id="DejaVuSans-61" d="M 2194 1759 
Q 1497 1759 1228 1600 
Q 959 1441 959 1056 
Q 959 750 1161 570 
Q 1363 391 1709 391 
Q 2188 391 2477 730 
Q 2766 1069 2766 1631 
L 2766 1759 
L 2194 1759 
z
M 3341 1997 
L 3341 0 
L 2766 0 
L 2766 531 
Q 2569 213 2275 61 
Q 1981 -91 1556 -91 
Q 1019 -91 701 211 
Q 384 513 384 1019 
Q 384 1609 779 1909 
Q 1175 2209 1959 2209 
L 2766 2209 
L 2766 2266 
Q 2766 2663 2505 2880 
Q 2244 3097 1772 3097 
Q 1472 3097 1187 3025 
Q 903 2953 641 2809 
L 641 3341 
Q 956 3463 1253 3523 
Q 1550 3584 1831 3584 
Q 2591 3584 2966 3190 
Q 3341 2797 3341 1997 
z
" transform="scale(0.015625)"/>
        <path id="DejaVuSans-49" d="M 628 4666 
L 1259 4666 
L 1259 0 
L 628 0 
L 628 4666 
z
" transform="scale(0.015625)"/>
        <path id="DejaVuSans-36" d="M 2113 2584 
Q 1688 2584 1439 2293 
Q 1191 2003 1191 1497 
Q 1191 994 1439 701 
Q 1688 409 2113 409 
Q 2538 409 2786 701 
Q 3034 994 3034 1497 
Q 3034 2003 2786 2293 
Q 2538 2584 2113 2584 
z
M 3366 4563 
L 3366 3988 
Q 3128 4100 2886 4159 
Q 2644 4219 2406 4219 
Q 1781 4219 1451 3797 
Q 1122 3375 1075 2522 
Q 1259 2794 1537 2939 
Q 1816 3084 2150 3084 
Q 2853 3084 3261 2657 
Q 3669 2231 3669 1497 
Q 3669 778 3244 343 
Q 2819 -91 2113 -91 
Q 1303 -91 875 529 
Q 447 1150 447 2328 
Q 447 3434 972 4092 
Q 1497 4750 2381 4750 
Q 2619 4750 2861 4703 
Q 3103 4656 3366 4563 
z
" transform="scale(0.015625)"/>
        <path id="DejaVuSans-75" d="M 544 1381 
L 544 3500 
L 1119 3500 
L 1119 1403 
Q 1119 906 1312 657 
Q 1506 409 1894 409 
Q 2359 409 2629 706 
Q 2900 1003 2900 1516 
L 2900 3500 
L 3475 3500 
L 3475 0 
L 2900 0 
L 2900 538 
Q 2691 219 2414 64 
Q 2138 -91 1772 -91 
Q 1169 -91 856 284 
Q 544 659 544 1381 
z
M 1991 3584 
L 1991 3584 
z
" transform="scale(0.015625)"/>
       </defs>
       <use xlink:href="#DejaVuSans-53"/>
       <use xlink:href="#DejaVuSans-61" x="63.476562"/>
       <use xlink:href="#DejaVuSans-61" x="124.755859"/>
       <use xlink:href="#DejaVuSans-31" x="186.035156"/>
       <use xlink:href="#DejaVuSans-20" x="249.658203"/>
       <use xlink:href="#DejaVuSans-47" x="281.445312"/>
       <use xlink:href="#DejaVuSans-50" x="358.935547"/>
       <use xlink:href="#DejaVuSans-2f" x="419.238281"/>
       <use xlink:href="#DejaVuSans-49" x="452.929688"/>
       <use xlink:href="#DejaVuSans-6c" x="482.421875"/>
       <use xlink:href="#DejaVuSans-36" x="510.205078"/>
       <use xlink:href="#DejaVuSans-73" x="573.828125"/>
       <use xlink:href="#DejaVuSans-74" x="625.927734"/>
       <use xlink:href="#DejaVuSans-20" x="665.136719"/>
       <use xlink:href="#DejaVuSans-47" x="696.923828"/>
       <use xlink:href="#DejaVuSans-50" x="774.414062"/>
       <use xlink:href="#DejaVuSans-2b" x="834.716797"/>
       <use xlink:href="#DejaVuSans-20" x="918.505859"/>
       <use xlink:href="#DejaVuSans-4d" x="950.292969"/>
       <use xlink:href="#DejaVuSans-75" x="1036.572266"/>
       <use xlink:href="#DejaVuSans-73" x="1099.951172"/>
       <use xlink:href="#DejaVuSans-63" x="1152.050781"/>
       <use xlink:href="#DejaVuSans-6c" x="1207.03125"/>
       <use xlink:href="#DejaVuSans-65" x="1234.814453"/>
       <use xlink:href="#DejaVuSans-73" x="1296.337891"/>
      </g>
     </g>
    </g>
    <g id="ytick_3">
     <g id="text_3">
      <!-- Mix -->
      <g style="fill: #262626" transform="translate(182.68 387.601558) scale(0.11662 -0.11662)">
       <defs>
        <path id="DejaVuSans-78" d="M 3513 3500 
L 2247 1797 
L 3578 0 
L 2900 0 
L 1881 1375 
L 863 0 
L 184 0 
L 1544 1831 
L 300 3500 
L 978 3500 
L 1906 2253 
L 2834 3500 
L 3513 3500 
z
" transform="scale(0.015625)"/>
       </defs>
       <use xlink:href="#DejaVuSans-4d"/>
       <use xlink:href="#DejaVuSans-69" x="86.279297"/>
       <use xlink:href="#DejaVuSans-78" x="114.0625"/>
      </g>
     </g>
    </g>
    <g id="ytick_4">
     <g id="text_4">
      <!-- Nptn GP/Fgf8 GP+ Spinal cord -->
      <g style="fill: #262626" transform="translate(182.68 366.656103) scale(0.11662 -0.11662)">
       <defs>
        <path id="DejaVuSans-4e" d="M 628 4666 
L 1478 4666 
L 3547 763 
L 3547 4666 
L 4159 4666 
L 4159 0 
L 3309 0 
L 1241 3903 
L 1241 0 
L 628 0 
L 628 4666 
z
" transform="scale(0.015625)"/>
        <path id="DejaVuSans-70" d="M 1159 525 
L 1159 -1331 
L 581 -1331 
L 581 3500 
L 1159 3500 
L 1159 2969 
Q 1341 3281 1617 3432 
Q 1894 3584 2278 3584 
Q 2916 3584 3314 3078 
Q 3713 2572 3713 1747 
Q 3713 922 3314 415 
Q 2916 -91 2278 -91 
Q 1894 -91 1617 61 
Q 1341 213 1159 525 
z
M 3116 1747 
Q 3116 2381 2855 2742 
Q 2594 3103 2138 3103 
Q 1681 3103 1420 2742 
Q 1159 2381 1159 1747 
Q 1159 1113 1420 752 
Q 1681 391 2138 391 
Q 2594 391 2855 752 
Q 3116 1113 3116 1747 
z
" transform="scale(0.015625)"/>
        <path id="DejaVuSans-6e" d="M 3513 2113 
L 3513 0 
L 2938 0 
L 2938 2094 
Q 2938 2591 2744 2837 
Q 2550 3084 2163 3084 
Q 1697 3084 1428 2787 
Q 1159 2491 1159 1978 
L 1159 0 
L 581 0 
L 581 3500 
L 1159 3500 
L 1159 2956 
Q 1366 3272 1645 3428 
Q 1925 3584 2291 3584 
Q 2894 3584 3203 3211 
Q 3513 2838 3513 2113 
z
" transform="scale(0.015625)"/>
       </defs>
       <use xlink:href="#DejaVuSans-4e"/>
       <use xlink:href="#DejaVuSans-70" x="74.804688"/>
       <use xlink:href="#DejaVuSans-74" x="138.28125"/>
       <use xlink:href="#DejaVuSans-6e" x="177.490234"/>
       <use xlink:href="#DejaVuSans-20" x="240.869141"/>
       <use xlink:href="#DejaVuSans-47" x="272.65625"/>
       <use xlink:href="#DejaVuSans-50" x="350.146484"/>
       <use xlink:href="#DejaVuSans-2f" x="410.449219"/>
       <use xlink:href="#DejaVuSans-46" x="444.140625"/>
       <use xlink:href="#DejaVuSans-67" x="501.660156"/>
       <use xlink:href="#DejaVuSans-66" x="565.136719"/>
       <use xlink:href="#DejaVuSans-38" x="600.341797"/>
       <use xlink:href="#DejaVuSans-20" x="663.964844"/>
       <use xlink:href="#DejaVuSans-47" x="695.751953"/>
       <use xlink:href="#DejaVuSans-50" x="773.242188"/>
       <use xlink:href="#DejaVuSans-2b" x="833.544922"/>
       <use xlink:href="#DejaVuSans-20" x="917.333984"/>
       <use xlink:href="#DejaVuSans-53" x="949.121094"/>
       <use xlink:href="#DejaVuSans-70" x="1012.597656"/>
       <use xlink:href="#DejaVuSans-69" x="1076.074219"/>
       <use xlink:href="#DejaVuSans-6e" x="1103.857422"/>
       <use xlink:href="#DejaVuSans-61" x="1167.236328"/>
       <use xlink:href="#DejaVuSans-6c" x="1228.515625"/>
       <use xlink:href="#DejaVuSans-20" x="1256.298828"/>
       <use xlink:href="#DejaVuSans-63" x="1288.085938"/>
       <use xlink:href="#DejaVuSans-6f" x="1343.066406"/>
       <use xlink:href="#DejaVuSans-72" x="1404.248047"/>
       <use xlink:href="#DejaVuSans-64" x="1443.611328"/>
      </g>
     </g>
    </g>
    <g id="ytick_5">
     <g id="text_5">
      <!-- Gdf10 GP/Fgf3 GP+ Hindbrain -->
      <g style="fill: #262626" transform="translate(182.68 345.710649) scale(0.11662 -0.11662)">
       <defs>
        <path id="DejaVuSans-30" d="M 2034 4250 
Q 1547 4250 1301 3770 
Q 1056 3291 1056 2328 
Q 1056 1369 1301 889 
Q 1547 409 2034 409 
Q 2525 409 2770 889 
Q 3016 1369 3016 2328 
Q 3016 3291 2770 3770 
Q 2525 4250 2034 4250 
z
M 2034 4750 
Q 2819 4750 3233 4129 
Q 3647 3509 3647 2328 
Q 3647 1150 3233 529 
Q 2819 -91 2034 -91 
Q 1250 -91 836 529 
Q 422 1150 422 2328 
Q 422 3509 836 4129 
Q 1250 4750 2034 4750 
z
" transform="scale(0.015625)"/>
        <path id="DejaVuSans-33" d="M 2597 2516 
Q 3050 2419 3304 2112 
Q 3559 1806 3559 1356 
Q 3559 666 3084 287 
Q 2609 -91 1734 -91 
Q 1441 -91 1130 -33 
Q 819 25 488 141 
L 488 750 
Q 750 597 1062 519 
Q 1375 441 1716 441 
Q 2309 441 2620 675 
Q 2931 909 2931 1356 
Q 2931 1769 2642 2001 
Q 2353 2234 1838 2234 
L 1294 2234 
L 1294 2753 
L 1863 2753 
Q 2328 2753 2575 2939 
Q 2822 3125 2822 3475 
Q 2822 3834 2567 4026 
Q 2313 4219 1838 4219 
Q 1578 4219 1281 4162 
Q 984 4106 628 3988 
L 628 4550 
Q 988 4650 1302 4700 
Q 1616 4750 1894 4750 
Q 2613 4750 3031 4423 
Q 3450 4097 3450 3541 
Q 3450 3153 3228 2886 
Q 3006 2619 2597 2516 
z
" transform="scale(0.015625)"/>
        <path id="DejaVuSans-48" d="M 628 4666 
L 1259 4666 
L 1259 2753 
L 3553 2753 
L 3553 4666 
L 4184 4666 
L 4184 0 
L 3553 0 
L 3553 2222 
L 1259 2222 
L 1259 0 
L 628 0 
L 628 4666 
z
" transform="scale(0.015625)"/>
        <path id="DejaVuSans-62" d="M 3116 1747 
Q 3116 2381 2855 2742 
Q 2594 3103 2138 3103 
Q 1681 3103 1420 2742 
Q 1159 2381 1159 1747 
Q 1159 1113 1420 752 
Q 1681 391 2138 391 
Q 2594 391 2855 752 
Q 3116 1113 3116 1747 
z
M 1159 2969 
Q 1341 3281 1617 3432 
Q 1894 3584 2278 3584 
Q 2916 3584 3314 3078 
Q 3713 2572 3713 1747 
Q 3713 922 3314 415 
Q 2916 -91 2278 -91 
Q 1894 -91 1617 61 
Q 1341 213 1159 525 
L 1159 0 
L 581 0 
L 581 4863 
L 1159 4863 
L 1159 2969 
z
" transform="scale(0.015625)"/>
       </defs>
       <use xlink:href="#DejaVuSans-47"/>
       <use xlink:href="#DejaVuSans-64" x="77.490234"/>
       <use xlink:href="#DejaVuSans-66" x="140.966797"/>
       <use xlink:href="#DejaVuSans-31" x="176.171875"/>
       <use xlink:href="#DejaVuSans-30" x="239.794922"/>
       <use xlink:href="#DejaVuSans-20" x="303.417969"/>
       <use xlink:href="#DejaVuSans-47" x="335.205078"/>
       <use xlink:href="#DejaVuSans-50" x="412.695312"/>
       <use xlink:href="#DejaVuSans-2f" x="472.998047"/>
       <use xlink:href="#DejaVuSans-46" x="506.689453"/>
       <use xlink:href="#DejaVuSans-67" x="564.208984"/>
       <use xlink:href="#DejaVuSans-66" x="627.685547"/>
       <use xlink:href="#DejaVuSans-33" x="662.890625"/>
       <use xlink:href="#DejaVuSans-20" x="726.513672"/>
       <use xlink:href="#DejaVuSans-47" x="758.300781"/>
       <use xlink:href="#DejaVuSans-50" x="835.791016"/>
       <use xlink:href="#DejaVuSans-2b" x="896.09375"/>
       <use xlink:href="#DejaVuSans-20" x="979.882812"/>
       <use xlink:href="#DejaVuSans-48" x="1011.669922"/>
       <use xlink:href="#DejaVuSans-69" x="1086.865234"/>
       <use xlink:href="#DejaVuSans-6e" x="1114.648438"/>
       <use xlink:href="#DejaVuSans-64" x="1178.027344"/>
       <use xlink:href="#DejaVuSans-62" x="1241.503906"/>
       <use xlink:href="#DejaVuSans-72" x="1304.980469"/>
       <use xlink:href="#DejaVuSans-61" x="1346.09375"/>
       <use xlink:href="#DejaVuSans-69" x="1407.373047"/>
       <use xlink:href="#DejaVuSans-6e" x="1435.15625"/>
      </g>
     </g>
    </g>
    <g id="ytick_6">
     <g id="text_6">
      <!-- Calca GP/Shh GP+ Floor Plate -->
      <g style="fill: #262626" transform="translate(182.68 324.765194) scale(0.11662 -0.11662)">
       <defs>
        <path id="DejaVuSans-43" d="M 4122 4306 
L 4122 3641 
Q 3803 3938 3442 4084 
Q 3081 4231 2675 4231 
Q 1875 4231 1450 3742 
Q 1025 3253 1025 2328 
Q 1025 1406 1450 917 
Q 1875 428 2675 428 
Q 3081 428 3442 575 
Q 3803 722 4122 1019 
L 4122 359 
Q 3791 134 3420 21 
Q 3050 -91 2638 -91 
Q 1578 -91 968 557 
Q 359 1206 359 2328 
Q 359 3453 968 4101 
Q 1578 4750 2638 4750 
Q 3056 4750 3426 4639 
Q 3797 4528 4122 4306 
z
" transform="scale(0.015625)"/>
        <path id="DejaVuSans-68" d="M 3513 2113 
L 3513 0 
L 2938 0 
L 2938 2094 
Q 2938 2591 2744 2837 
Q 2550 3084 2163 3084 
Q 1697 3084 1428 2787 
Q 1159 2491 1159 1978 
L 1159 0 
L 581 0 
L 581 4863 
L 1159 4863 
L 1159 2956 
Q 1366 3272 1645 3428 
Q 1925 3584 2291 3584 
Q 2894 3584 3203 3211 
Q 3513 2838 3513 2113 
z
" transform="scale(0.015625)"/>
       </defs>
       <use xlink:href="#DejaVuSans-43"/>
       <use xlink:href="#DejaVuSans-61" x="69.824219"/>
       <use xlink:href="#DejaVuSans-6c" x="131.103516"/>
       <use xlink:href="#DejaVuSans-63" x="158.886719"/>
       <use xlink:href="#DejaVuSans-61" x="213.867188"/>
       <use xlink:href="#DejaVuSans-20" x="275.146484"/>
       <use xlink:href="#DejaVuSans-47" x="306.933594"/>
       <use xlink:href="#DejaVuSans-50" x="384.423828"/>
       <use xlink:href="#DejaVuSans-2f" x="444.726562"/>
       <use xlink:href="#DejaVuSans-53" x="478.417969"/>
       <use xlink:href="#DejaVuSans-68" x="541.894531"/>
       <use xlink:href="#DejaVuSans-68" x="605.273438"/>
       <use xlink:href="#DejaVuSans-20" x="668.652344"/>
       <use xlink:href="#DejaVuSans-47" x="700.439453"/>
       <use xlink:href="#DejaVuSans-50" x="777.929688"/>
       <use xlink:href="#DejaVuSans-2b" x="838.232422"/>
       <use xlink:href="#DejaVuSans-20" x="922.021484"/>
       <use xlink:href="#DejaVuSans-46" x="953.808594"/>
       <use xlink:href="#DejaVuSans-6c" x="1011.328125"/>
       <use xlink:href="#DejaVuSans-6f" x="1039.111328"/>
       <use xlink:href="#DejaVuSans-6f" x="1100.292969"/>
       <use xlink:href="#DejaVuSans-72" x="1161.474609"/>
       <use xlink:href="#DejaVuSans-20" x="1202.587891"/>
       <use xlink:href="#DejaVuSans-50" x="1234.375"/>
       <use xlink:href="#DejaVuSans-6c" x="1294.677734"/>
       <use xlink:href="#DejaVuSans-61" x="1322.460938"/>
       <use xlink:href="#DejaVuSans-74" x="1383.740234"/>
       <use xlink:href="#DejaVuSans-65" x="1422.949219"/>
      </g>
     </g>
    </g>
    <g id="ytick_7">
     <g id="text_7">
      <!-- Pcsk1n GP/Dkk1 GP+ Forebrain -->
      <g style="fill: #262626" transform="translate(182.68 303.81974) scale(0.11662 -0.11662)">
       <defs>
        <path id="DejaVuSans-6b" d="M 581 4863 
L 1159 4863 
L 1159 1991 
L 2875 3500 
L 3609 3500 
L 1753 1863 
L 3688 0 
L 2938 0 
L 1159 1709 
L 1159 0 
L 581 0 
L 581 4863 
z
" transform="scale(0.015625)"/>
       </defs>
       <use xlink:href="#DejaVuSans-50"/>
       <use xlink:href="#DejaVuSans-63" x="60.302734"/>
       <use xlink:href="#DejaVuSans-73" x="115.283203"/>
       <use xlink:href="#DejaVuSans-6b" x="167.382812"/>
       <use xlink:href="#DejaVuSans-31" x="225.292969"/>
       <use xlink:href="#DejaVuSans-6e" x="288.916016"/>
       <use xlink:href="#DejaVuSans-20" x="352.294922"/>
       <use xlink:href="#DejaVuSans-47" x="384.082031"/>
       <use xlink:href="#DejaVuSans-50" x="461.572266"/>
       <use xlink:href="#DejaVuSans-2f" x="521.875"/>
       <use xlink:href="#DejaVuSans-44" x="555.566406"/>
       <use xlink:href="#DejaVuSans-6b" x="632.568359"/>
       <use xlink:href="#DejaVuSans-6b" x="690.478516"/>
       <use xlink:href="#DejaVuSans-31" x="748.388672"/>
       <use xlink:href="#DejaVuSans-20" x="812.011719"/>
       <use xlink:href="#DejaVuSans-47" x="843.798828"/>
       <use xlink:href="#DejaVuSans-50" x="921.289062"/>
       <use xlink:href="#DejaVuSans-2b" x="981.591797"/>
       <use xlink:href="#DejaVuSans-20" x="1065.380859"/>
       <use xlink:href="#DejaVuSans-46" x="1097.167969"/>
       <use xlink:href="#DejaVuSans-6f" x="1151.0625"/>
       <use xlink:href="#DejaVuSans-72" x="1212.244141"/>
       <use xlink:href="#DejaVuSans-65" x="1251.107422"/>
       <use xlink:href="#DejaVuSans-62" x="1312.630859"/>
       <use xlink:href="#DejaVuSans-72" x="1376.107422"/>
       <use xlink:href="#DejaVuSans-61" x="1417.220703"/>
       <use xlink:href="#DejaVuSans-69" x="1478.5"/>
       <use xlink:href="#DejaVuSans-6e" x="1506.283203"/>
      </g>
     </g>
    </g>
    <g id="ytick_8">
     <g id="text_8">
      <!-- Fgf17 GP/Efna2 GP+ Midbrain -->
      <g style="fill: #262626" transform="translate(182.68 282.874285) scale(0.11662 -0.11662)">
       <defs>
        <path id="DejaVuSans-37" d="M 525 4666 
L 3525 4666 
L 3525 4397 
L 1831 0 
L 1172 0 
L 2766 4134 
L 525 4134 
L 525 4666 
z
" transform="scale(0.015625)"/>
        <path id="DejaVuSans-45" d="M 628 4666 
L 3578 4666 
L 3578 4134 
L 1259 4134 
L 1259 2753 
L 3481 2753 
L 3481 2222 
L 1259 2222 
L 1259 531 
L 3634 531 
L 3634 0 
L 628 0 
L 628 4666 
z
" transform="scale(0.015625)"/>
        <path id="DejaVuSans-32" d="M 1228 531 
L 3431 531 
L 3431 0 
L 469 0 
L 469 531 
Q 828 903 1448 1529 
Q 2069 2156 2228 2338 
Q 2531 2678 2651 2914 
Q 2772 3150 2772 3378 
Q 2772 3750 2511 3984 
Q 2250 4219 1831 4219 
Q 1534 4219 1204 4116 
Q 875 4013 500 3803 
L 500 4441 
Q 881 4594 1212 4672 
Q 1544 4750 1819 4750 
Q 2544 4750 2975 4387 
Q 3406 4025 3406 3419 
Q 3406 3131 3298 2873 
Q 3191 2616 2906 2266 
Q 2828 2175 2409 1742 
Q 1991 1309 1228 531 
z
" transform="scale(0.015625)"/>
       </defs>
       <use xlink:href="#DejaVuSans-46"/>
       <use xlink:href="#DejaVuSans-67" x="57.519531"/>
       <use xlink:href="#DejaVuSans-66" x="120.996094"/>
       <use xlink:href="#DejaVuSans-31" x="156.201172"/>
       <use xlink:href="#DejaVuSans-37" x="219.824219"/>
       <use xlink:href="#DejaVuSans-20" x="283.447266"/>
       <use xlink:href="#DejaVuSans-47" x="315.234375"/>
       <use xlink:href="#DejaVuSans-50" x="392.724609"/>
       <use xlink:href="#DejaVuSans-2f" x="453.027344"/>
       <use xlink:href="#DejaVuSans-45" x="486.71875"/>
       <use xlink:href="#DejaVuSans-66" x="549.902344"/>
       <use xlink:href="#DejaVuSans-6e" x="585.107422"/>
       <use xlink:href="#DejaVuSans-61" x="648.486328"/>
       <use xlink:href="#DejaVuSans-32" x="709.765625"/>
       <use xlink:href="#DejaVuSans-20" x="773.388672"/>
       <use xlink:href="#DejaVuSans-47" x="805.175781"/>
       <use xlink:href="#DejaVuSans-50" x="882.666016"/>
       <use xlink:href="#DejaVuSans-2b" x="942.96875"/>
       <use xlink:href="#DejaVuSans-20" x="1026.757812"/>
       <use xlink:href="#DejaVuSans-4d" x="1058.544922"/>
       <use xlink:href="#DejaVuSans-69" x="1144.824219"/>
       <use xlink:href="#DejaVuSans-64" x="1172.607422"/>
       <use xlink:href="#DejaVuSans-62" x="1236.083984"/>
       <use xlink:href="#DejaVuSans-72" x="1299.560547"/>
       <use xlink:href="#DejaVuSans-61" x="1340.673828"/>
       <use xlink:href="#DejaVuSans-69" x="1401.953125"/>
       <use xlink:href="#DejaVuSans-6e" x="1429.736328"/>
      </g>
     </g>
    </g>
    <g id="ytick_9">
     <g id="text_9">
      <!-- IL10 GP/Fgf2 GP+ Angiogenesis -->
      <g style="fill: #262626" transform="translate(182.68 261.928831) scale(0.11662 -0.11662)">
       <defs>
        <path id="DejaVuSans-4c" d="M 628 4666 
L 1259 4666 
L 1259 531 
L 3531 531 
L 3531 0 
L 628 0 
L 628 4666 
z
" transform="scale(0.015625)"/>
        <path id="DejaVuSans-41" d="M 2188 4044 
L 1331 1722 
L 3047 1722 
L 2188 4044 
z
M 1831 4666 
L 2547 4666 
L 4325 0 
L 3669 0 
L 3244 1197 
L 1141 1197 
L 716 0 
L 50 0 
L 1831 4666 
z
" transform="scale(0.015625)"/>
       </defs>
       <use xlink:href="#DejaVuSans-49"/>
       <use xlink:href="#DejaVuSans-4c" x="29.492188"/>
       <use xlink:href="#DejaVuSans-31" x="85.205078"/>
       <use xlink:href="#DejaVuSans-30" x="148.828125"/>
       <use xlink:href="#DejaVuSans-20" x="212.451172"/>
       <use xlink:href="#DejaVuSans-47" x="244.238281"/>
       <use xlink:href="#DejaVuSans-50" x="321.728516"/>
       <use xlink:href="#DejaVuSans-2f" x="382.03125"/>
       <use xlink:href="#DejaVuSans-46" x="415.722656"/>
       <use xlink:href="#DejaVuSans-67" x="473.242188"/>
       <use xlink:href="#DejaVuSans-66" x="536.71875"/>
       <use xlink:href="#DejaVuSans-32" x="571.923828"/>
       <use xlink:href="#DejaVuSans-20" x="635.546875"/>
       <use xlink:href="#DejaVuSans-47" x="667.333984"/>
       <use xlink:href="#DejaVuSans-50" x="744.824219"/>
       <use xlink:href="#DejaVuSans-2b" x="805.126953"/>
       <use xlink:href="#DejaVuSans-20" x="888.916016"/>
       <use xlink:href="#DejaVuSans-41" x="920.703125"/>
       <use xlink:href="#DejaVuSans-6e" x="989.111328"/>
       <use xlink:href="#DejaVuSans-67" x="1052.490234"/>
       <use xlink:href="#DejaVuSans-69" x="1115.966797"/>
       <use xlink:href="#DejaVuSans-6f" x="1143.75"/>
       <use xlink:href="#DejaVuSans-67" x="1204.931641"/>
       <use xlink:href="#DejaVuSans-65" x="1268.408203"/>
       <use xlink:href="#DejaVuSans-6e" x="1329.931641"/>
       <use xlink:href="#DejaVuSans-65" x="1393.310547"/>
       <use xlink:href="#DejaVuSans-73" x="1454.833984"/>
       <use xlink:href="#DejaVuSans-69" x="1506.933594"/>
       <use xlink:href="#DejaVuSans-73" x="1534.716797"/>
      </g>
     </g>
    </g>
    <g id="ytick_10">
     <g id="text_10">
      <!-- Epo GP/Thpo GP+ Hematopoiesis -->
      <g style="fill: #262626" transform="translate(182.68 240.983376) scale(0.11662 -0.11662)">
       <defs>
        <path id="DejaVuSans-54" d="M -19 4666 
L 3928 4666 
L 3928 4134 
L 2272 4134 
L 2272 0 
L 1638 0 
L 1638 4134 
L -19 4134 
L -19 4666 
z
" transform="scale(0.015625)"/>
       </defs>
       <use xlink:href="#DejaVuSans-45"/>
       <use xlink:href="#DejaVuSans-70" x="63.183594"/>
       <use xlink:href="#DejaVuSans-6f" x="126.660156"/>
       <use xlink:href="#DejaVuSans-20" x="187.841797"/>
       <use xlink:href="#DejaVuSans-47" x="219.628906"/>
       <use xlink:href="#DejaVuSans-50" x="297.119141"/>
       <use xlink:href="#DejaVuSans-2f" x="357.421875"/>
       <use xlink:href="#DejaVuSans-54" x="391.113281"/>
       <use xlink:href="#DejaVuSans-68" x="452.197266"/>
       <use xlink:href="#DejaVuSans-70" x="515.576172"/>
       <use xlink:href="#DejaVuSans-6f" x="579.052734"/>
       <use xlink:href="#DejaVuSans-20" x="640.234375"/>
       <use xlink:href="#DejaVuSans-47" x="672.021484"/>
       <use xlink:href="#DejaVuSans-50" x="749.511719"/>
       <use xlink:href="#DejaVuSans-2b" x="809.814453"/>
       <use xlink:href="#DejaVuSans-20" x="893.603516"/>
       <use xlink:href="#DejaVuSans-48" x="925.390625"/>
       <use xlink:href="#DejaVuSans-65" x="1000.585938"/>
       <use xlink:href="#DejaVuSans-6d" x="1062.109375"/>
       <use xlink:href="#DejaVuSans-61" x="1159.521484"/>
       <use xlink:href="#DejaVuSans-74" x="1220.800781"/>
       <use xlink:href="#DejaVuSans-6f" x="1260.009766"/>
       <use xlink:href="#DejaVuSans-70" x="1321.191406"/>
       <use xlink:href="#DejaVuSans-6f" x="1384.667969"/>
       <use xlink:href="#DejaVuSans-69" x="1445.849609"/>
       <use xlink:href="#DejaVuSans-65" x="1473.632812"/>
       <use xlink:href="#DejaVuSans-73" x="1535.15625"/>
       <use xlink:href="#DejaVuSans-69" x="1587.255859"/>
       <use xlink:href="#DejaVuSans-73" x="1615.039062"/>
      </g>
     </g>
    </g>
    <g id="ytick_11">
     <g id="text_11">
      <!-- Tgfbi GP/Fgf6 GP+ Cranial Mesoderm -->
      <g style="fill: #262626" transform="translate(182.68 220.037922) scale(0.11662 -0.11662)">
       <use xlink:href="#DejaVuSans-54"/>
       <use xlink:href="#DejaVuSans-67" x="61.083984"/>
       <use xlink:href="#DejaVuSans-66" x="124.560547"/>
       <use xlink:href="#DejaVuSans-62" x="159.765625"/>
       <use xlink:href="#DejaVuSans-69" x="223.242188"/>
       <use xlink:href="#DejaVuSans-20" x="251.025391"/>
       <use xlink:href="#DejaVuSans-47" x="282.8125"/>
       <use xlink:href="#DejaVuSans-50" x="360.302734"/>
       <use xlink:href="#DejaVuSans-2f" x="420.605469"/>
       <use xlink:href="#DejaVuSans-46" x="454.296875"/>
       <use xlink:href="#DejaVuSans-67" x="511.816406"/>
       <use xlink:href="#DejaVuSans-66" x="575.292969"/>
       <use xlink:href="#DejaVuSans-36" x="610.498047"/>
       <use xlink:href="#DejaVuSans-20" x="674.121094"/>
       <use xlink:href="#DejaVuSans-47" x="705.908203"/>
       <use xlink:href="#DejaVuSans-50" x="783.398438"/>
       <use xlink:href="#DejaVuSans-2b" x="843.701172"/>
       <use xlink:href="#DejaVuSans-20" x="927.490234"/>
       <use xlink:href="#DejaVuSans-43" x="959.277344"/>
       <use xlink:href="#DejaVuSans-72" x="1029.101562"/>
       <use xlink:href="#DejaVuSans-61" x="1070.214844"/>
       <use xlink:href="#DejaVuSans-6e" x="1131.494141"/>
       <use xlink:href="#DejaVuSans-69" x="1194.873047"/>
       <use xlink:href="#DejaVuSans-61" x="1222.65625"/>
       <use xlink:href="#DejaVuSans-6c" x="1283.935547"/>
       <use xlink:href="#DejaVuSans-20" x="1311.71875"/>
       <use xlink:href="#DejaVuSans-4d" x="1343.505859"/>
       <use xlink:href="#DejaVuSans-65" x="1429.785156"/>
       <use xlink:href="#DejaVuSans-73" x="1491.308594"/>
       <use xlink:href="#DejaVuSans-6f" x="1543.408203"/>
       <use xlink:href="#DejaVuSans-64" x="1604.589844"/>
       <use xlink:href="#DejaVuSans-65" x="1668.066406"/>
       <use xlink:href="#DejaVuSans-72" x="1729.589844"/>
       <use xlink:href="#DejaVuSans-6d" x="1768.953125"/>
      </g>
     </g>
    </g>
    <g id="ytick_12">
     <g id="text_12">
      <!-- Guanine GP/Slitrk1 GP+ Neural Crest (Neural Tube) -->
      <g style="fill: #262626" transform="translate(182.68 199.092467) scale(0.11662 -0.11662)">
       <defs>
        <path id="DejaVuSans-28" d="M 1984 4856 
Q 1566 4138 1362 3434 
Q 1159 2731 1159 2009 
Q 1159 1288 1364 580 
Q 1569 -128 1984 -844 
L 1484 -844 
Q 1016 -109 783 600 
Q 550 1309 550 2009 
Q 550 2706 781 3412 
Q 1013 4119 1484 4856 
L 1984 4856 
z
" transform="scale(0.015625)"/>
        <path id="DejaVuSans-29" d="M 513 4856 
L 1013 4856 
Q 1481 4119 1714 3412 
Q 1947 2706 1947 2009 
Q 1947 1309 1714 600 
Q 1481 -109 1013 -844 
L 513 -844 
Q 928 -128 1133 580 
Q 1338 1288 1338 2009 
Q 1338 2731 1133 3434 
Q 928 4138 513 4856 
z
" transform="scale(0.015625)"/>
       </defs>
       <use xlink:href="#DejaVuSans-47"/>
       <use xlink:href="#DejaVuSans-75" x="77.490234"/>
       <use xlink:href="#DejaVuSans-61" x="140.869141"/>
       <use xlink:href="#DejaVuSans-6e" x="202.148438"/>
       <use xlink:href="#DejaVuSans-69" x="265.527344"/>
       <use xlink:href="#DejaVuSans-6e" x="293.310547"/>
       <use xlink:href="#DejaVuSans-65" x="356.689453"/>
       <use xlink:href="#DejaVuSans-20" x="418.212891"/>
       <use xlink:href="#DejaVuSans-47" x="450"/>
       <use xlink:href="#DejaVuSans-50" x="527.490234"/>
       <use xlink:href="#DejaVuSans-2f" x="587.792969"/>
       <use xlink:href="#DejaVuSans-53" x="621.484375"/>
       <use xlink:href="#DejaVuSans-6c" x="684.960938"/>
       <use xlink:href="#DejaVuSans-69" x="712.744141"/>
       <use xlink:href="#DejaVuSans-74" x="740.527344"/>
       <use xlink:href="#DejaVuSans-72" x="779.736328"/>
       <use xlink:href="#DejaVuSans-6b" x="820.849609"/>
       <use xlink:href="#DejaVuSans-31" x="878.759766"/>
       <use xlink:href="#DejaVuSans-20" x="942.382812"/>
       <use xlink:href="#DejaVuSans-47" x="974.169922"/>
       <use xlink:href="#DejaVuSans-50" x="1051.660156"/>
       <use xlink:href="#DejaVuSans-2b" x="1111.962891"/>
       <use xlink:href="#DejaVuSans-20" x="1195.751953"/>
       <use xlink:href="#DejaVuSans-4e" x="1227.539062"/>
       <use xlink:href="#DejaVuSans-65" x="1302.34375"/>
       <use xlink:href="#DejaVuSans-75" x="1363.867188"/>
       <use xlink:href="#DejaVuSans-72" x="1427.246094"/>
       <use xlink:href="#DejaVuSans-61" x="1468.359375"/>
       <use xlink:href="#DejaVuSans-6c" x="1529.638672"/>
       <use xlink:href="#DejaVuSans-20" x="1557.421875"/>
       <use xlink:href="#DejaVuSans-43" x="1589.208984"/>
       <use xlink:href="#DejaVuSans-72" x="1659.033203"/>
       <use xlink:href="#DejaVuSans-65" x="1697.896484"/>
       <use xlink:href="#DejaVuSans-73" x="1759.419922"/>
       <use xlink:href="#DejaVuSans-74" x="1811.519531"/>
       <use xlink:href="#DejaVuSans-20" x="1850.728516"/>
       <use xlink:href="#DejaVuSans-28" x="1882.515625"/>
       <use xlink:href="#DejaVuSans-4e" x="1921.529297"/>
       <use xlink:href="#DejaVuSans-65" x="1996.333984"/>
       <use xlink:href="#DejaVuSans-75" x="2057.857422"/>
       <use xlink:href="#DejaVuSans-72" x="2121.236328"/>
       <use xlink:href="#DejaVuSans-61" x="2162.349609"/>
       <use xlink:href="#DejaVuSans-6c" x="2223.628906"/>
       <use xlink:href="#DejaVuSans-20" x="2251.412109"/>
       <use xlink:href="#DejaVuSans-54" x="2283.199219"/>
       <use xlink:href="#DejaVuSans-75" x="2329.158203"/>
       <use xlink:href="#DejaVuSans-62" x="2392.537109"/>
       <use xlink:href="#DejaVuSans-65" x="2456.013672"/>
       <use xlink:href="#DejaVuSans-29" x="2517.537109"/>
      </g>
     </g>
    </g>
    <g id="ytick_13">
     <g id="text_13">
      <!-- Sfrp4 GP/Pdgfa GP+ Surface Ectoderm -->
      <g style="fill: #262626" transform="translate(182.68 178.147013) scale(0.11662 -0.11662)">
       <defs>
        <path id="DejaVuSans-34" d="M 2419 4116 
L 825 1625 
L 2419 1625 
L 2419 4116 
z
M 2253 4666 
L 3047 4666 
L 3047 1625 
L 3713 1625 
L 3713 1100 
L 3047 1100 
L 3047 0 
L 2419 0 
L 2419 1100 
L 313 1100 
L 313 1709 
L 2253 4666 
z
" transform="scale(0.015625)"/>
       </defs>
       <use xlink:href="#DejaVuSans-53"/>
       <use xlink:href="#DejaVuSans-66" x="63.476562"/>
       <use xlink:href="#DejaVuSans-72" x="98.681641"/>
       <use xlink:href="#DejaVuSans-70" x="139.794922"/>
       <use xlink:href="#DejaVuSans-34" x="203.271484"/>
       <use xlink:href="#DejaVuSans-20" x="266.894531"/>
       <use xlink:href="#DejaVuSans-47" x="298.681641"/>
       <use xlink:href="#DejaVuSans-50" x="376.171875"/>
       <use xlink:href="#DejaVuSans-2f" x="436.474609"/>
       <use xlink:href="#DejaVuSans-50" x="470.166016"/>
       <use xlink:href="#DejaVuSans-64" x="530.46875"/>
       <use xlink:href="#DejaVuSans-67" x="593.945312"/>
       <use xlink:href="#DejaVuSans-66" x="657.421875"/>
       <use xlink:href="#DejaVuSans-61" x="692.626953"/>
       <use xlink:href="#DejaVuSans-20" x="753.90625"/>
       <use xlink:href="#DejaVuSans-47" x="785.693359"/>
       <use xlink:href="#DejaVuSans-50" x="863.183594"/>
       <use xlink:href="#DejaVuSans-2b" x="923.486328"/>
       <use xlink:href="#DejaVuSans-20" x="1007.275391"/>
       <use xlink:href="#DejaVuSans-53" x="1039.0625"/>
       <use xlink:href="#DejaVuSans-75" x="1102.539062"/>
       <use xlink:href="#DejaVuSans-72" x="1165.917969"/>
       <use xlink:href="#DejaVuSans-66" x="1207.03125"/>
       <use xlink:href="#DejaVuSans-61" x="1242.236328"/>
       <use xlink:href="#DejaVuSans-63" x="1303.515625"/>
       <use xlink:href="#DejaVuSans-65" x="1358.496094"/>
       <use xlink:href="#DejaVuSans-20" x="1420.019531"/>
       <use xlink:href="#DejaVuSans-45" x="1451.806641"/>
       <use xlink:href="#DejaVuSans-63" x="1514.990234"/>
       <use xlink:href="#DejaVuSans-74" x="1569.970703"/>
       <use xlink:href="#DejaVuSans-6f" x="1609.179688"/>
       <use xlink:href="#DejaVuSans-64" x="1670.361328"/>
       <use xlink:href="#DejaVuSans-65" x="1733.837891"/>
       <use xlink:href="#DejaVuSans-72" x="1795.361328"/>
       <use xlink:href="#DejaVuSans-6d" x="1834.724609"/>
      </g>
     </g>
    </g>
    <g id="ytick_14">
     <g id="text_14">
      <!-- Ihh GP/Spint1 GP+ Ventral Gut -->
      <g style="fill: #262626" transform="translate(182.68 157.201558) scale(0.11662 -0.11662)">
       <defs>
        <path id="DejaVuSans-56" d="M 1831 0 
L 50 4666 
L 709 4666 
L 2188 738 
L 3669 4666 
L 4325 4666 
L 2547 0 
L 1831 0 
z
" transform="scale(0.015625)"/>
       </defs>
       <use xlink:href="#DejaVuSans-49"/>
       <use xlink:href="#DejaVuSans-68" x="29.492188"/>
       <use xlink:href="#DejaVuSans-68" x="92.871094"/>
       <use xlink:href="#DejaVuSans-20" x="156.25"/>
       <use xlink:href="#DejaVuSans-47" x="188.037109"/>
       <use xlink:href="#DejaVuSans-50" x="265.527344"/>
       <use xlink:href="#DejaVuSans-2f" x="325.830078"/>
       <use xlink:href="#DejaVuSans-53" x="359.521484"/>
       <use xlink:href="#DejaVuSans-70" x="422.998047"/>
       <use xlink:href="#DejaVuSans-69" x="486.474609"/>
       <use xlink:href="#DejaVuSans-6e" x="514.257812"/>
       <use xlink:href="#DejaVuSans-74" x="577.636719"/>
       <use xlink:href="#DejaVuSans-31" x="616.845703"/>
       <use xlink:href="#DejaVuSans-20" x="680.46875"/>
       <use xlink:href="#DejaVuSans-47" x="712.255859"/>
       <use xlink:href="#DejaVuSans-50" x="789.746094"/>
       <use xlink:href="#DejaVuSans-2b" x="850.048828"/>
       <use xlink:href="#DejaVuSans-20" x="933.837891"/>
       <use xlink:href="#DejaVuSans-56" x="965.625"/>
       <use xlink:href="#DejaVuSans-65" x="1026.283203"/>
       <use xlink:href="#DejaVuSans-6e" x="1087.806641"/>
       <use xlink:href="#DejaVuSans-74" x="1151.185547"/>
       <use xlink:href="#DejaVuSans-72" x="1190.394531"/>
       <use xlink:href="#DejaVuSans-61" x="1231.507812"/>
       <use xlink:href="#DejaVuSans-6c" x="1292.787109"/>
       <use xlink:href="#DejaVuSans-20" x="1320.570312"/>
       <use xlink:href="#DejaVuSans-47" x="1352.357422"/>
       <use xlink:href="#DejaVuSans-75" x="1429.847656"/>
       <use xlink:href="#DejaVuSans-74" x="1493.226562"/>
      </g>
     </g>
    </g>
    <g id="ytick_15">
     <g id="text_15">
      <!-- Cthrc1 GP/Pdgfc GP+ Dorsal Gut -->
      <g style="fill: #262626" transform="translate(182.68 136.256103) scale(0.11662 -0.11662)">
       <use xlink:href="#DejaVuSans-43"/>
       <use xlink:href="#DejaVuSans-74" x="69.824219"/>
       <use xlink:href="#DejaVuSans-68" x="109.033203"/>
       <use xlink:href="#DejaVuSans-72" x="172.412109"/>
       <use xlink:href="#DejaVuSans-63" x="211.275391"/>
       <use xlink:href="#DejaVuSans-31" x="266.255859"/>
       <use xlink:href="#DejaVuSans-20" x="329.878906"/>
       <use xlink:href="#DejaVuSans-47" x="361.666016"/>
       <use xlink:href="#DejaVuSans-50" x="439.15625"/>
       <use xlink:href="#DejaVuSans-2f" x="499.458984"/>
       <use xlink:href="#DejaVuSans-50" x="533.150391"/>
       <use xlink:href="#DejaVuSans-64" x="593.453125"/>
       <use xlink:href="#DejaVuSans-67" x="656.929688"/>
       <use xlink:href="#DejaVuSans-66" x="720.40625"/>
       <use xlink:href="#DejaVuSans-63" x="755.611328"/>
       <use xlink:href="#DejaVuSans-20" x="810.591797"/>
       <use xlink:href="#DejaVuSans-47" x="842.378906"/>
       <use xlink:href="#DejaVuSans-50" x="919.869141"/>
       <use xlink:href="#DejaVuSans-2b" x="980.171875"/>
       <use xlink:href="#DejaVuSans-20" x="1063.960938"/>
       <use xlink:href="#DejaVuSans-44" x="1095.748047"/>
       <use xlink:href="#DejaVuSans-6f" x="1172.75"/>
       <use xlink:href="#DejaVuSans-72" x="1233.931641"/>
       <use xlink:href="#DejaVuSans-73" x="1275.044922"/>
       <use xlink:href="#DejaVuSans-61" x="1327.144531"/>
       <use xlink:href="#DejaVuSans-6c" x="1388.423828"/>
       <use xlink:href="#DejaVuSans-20" x="1416.207031"/>
       <use xlink:href="#DejaVuSans-47" x="1447.994141"/>
       <use xlink:href="#DejaVuSans-75" x="1525.484375"/>
       <use xlink:href="#DejaVuSans-74" x="1588.863281"/>
      </g>
     </g>
    </g>
    <g id="ytick_16">
     <g id="text_16">
      <!-- Edn1 GP/Nppa1 GP+ Developing Heart -->
      <g style="fill: #262626" transform="translate(182.68 115.310649) scale(0.11662 -0.11662)">
       <defs>
        <path id="DejaVuSans-76" d="M 191 3500 
L 800 3500 
L 1894 563 
L 2988 3500 
L 3597 3500 
L 2284 0 
L 1503 0 
L 191 3500 
z
" transform="scale(0.015625)"/>
       </defs>
       <use xlink:href="#DejaVuSans-45"/>
       <use xlink:href="#DejaVuSans-64" x="63.183594"/>
       <use xlink:href="#DejaVuSans-6e" x="126.660156"/>
       <use xlink:href="#DejaVuSans-31" x="190.039062"/>
       <use xlink:href="#DejaVuSans-20" x="253.662109"/>
       <use xlink:href="#DejaVuSans-47" x="285.449219"/>
       <use xlink:href="#DejaVuSans-50" x="362.939453"/>
       <use xlink:href="#DejaVuSans-2f" x="423.242188"/>
       <use xlink:href="#DejaVuSans-4e" x="456.933594"/>
       <use xlink:href="#DejaVuSans-70" x="531.738281"/>
       <use xlink:href="#DejaVuSans-70" x="595.214844"/>
       <use xlink:href="#DejaVuSans-61" x="658.691406"/>
       <use xlink:href="#DejaVuSans-31" x="719.970703"/>
       <use xlink:href="#DejaVuSans-20" x="783.59375"/>
       <use xlink:href="#DejaVuSans-47" x="815.380859"/>
       <use xlink:href="#DejaVuSans-50" x="892.871094"/>
       <use xlink:href="#DejaVuSans-2b" x="953.173828"/>
       <use xlink:href="#DejaVuSans-20" x="1036.962891"/>
       <use xlink:href="#DejaVuSans-44" x="1068.75"/>
       <use xlink:href="#DejaVuSans-65" x="1145.751953"/>
       <use xlink:href="#DejaVuSans-76" x="1207.275391"/>
       <use xlink:href="#DejaVuSans-65" x="1266.455078"/>
       <use xlink:href="#DejaVuSans-6c" x="1327.978516"/>
       <use xlink:href="#DejaVuSans-6f" x="1355.761719"/>
       <use xlink:href="#DejaVuSans-70" x="1416.943359"/>
       <use xlink:href="#DejaVuSans-69" x="1480.419922"/>
       <use xlink:href="#DejaVuSans-6e" x="1508.203125"/>
       <use xlink:href="#DejaVuSans-67" x="1571.582031"/>
       <use xlink:href="#DejaVuSans-20" x="1635.058594"/>
       <use xlink:href="#DejaVuSans-48" x="1666.845703"/>
       <use xlink:href="#DejaVuSans-65" x="1742.041016"/>
       <use xlink:href="#DejaVuSans-61" x="1803.564453"/>
       <use xlink:href="#DejaVuSans-72" x="1864.84375"/>
       <use xlink:href="#DejaVuSans-74" x="1905.957031"/>
      </g>
     </g>
    </g>
    <g id="ytick_17">
     <g id="text_17">
      <!-- Bmp8a GP/9-cis-Ret. acid GP+ Splanchnic Mesoderm -->
      <g style="fill: #262626" transform="translate(182.68 94.365194) scale(0.11662 -0.11662)">
       <defs>
        <path id="DejaVuSans-42" d="M 1259 2228 
L 1259 519 
L 2272 519 
Q 2781 519 3026 730 
Q 3272 941 3272 1375 
Q 3272 1813 3026 2020 
Q 2781 2228 2272 2228 
L 1259 2228 
z
M 1259 4147 
L 1259 2741 
L 2194 2741 
Q 2656 2741 2882 2914 
Q 3109 3088 3109 3444 
Q 3109 3797 2882 3972 
Q 2656 4147 2194 4147 
L 1259 4147 
z
M 628 4666 
L 2241 4666 
Q 2963 4666 3353 4366 
Q 3744 4066 3744 3513 
Q 3744 3084 3544 2831 
Q 3344 2578 2956 2516 
Q 3422 2416 3680 2098 
Q 3938 1781 3938 1306 
Q 3938 681 3513 340 
Q 3088 0 2303 0 
L 628 0 
L 628 4666 
z
" transform="scale(0.015625)"/>
        <path id="DejaVuSans-39" d="M 703 97 
L 703 672 
Q 941 559 1184 500 
Q 1428 441 1663 441 
Q 2288 441 2617 861 
Q 2947 1281 2994 2138 
Q 2813 1869 2534 1725 
Q 2256 1581 1919 1581 
Q 1219 1581 811 2004 
Q 403 2428 403 3163 
Q 403 3881 828 4315 
Q 1253 4750 1959 4750 
Q 2769 4750 3195 4129 
Q 3622 3509 3622 2328 
Q 3622 1225 3098 567 
Q 2575 -91 1691 -91 
Q 1453 -91 1209 -44 
Q 966 3 703 97 
z
M 1959 2075 
Q 2384 2075 2632 2365 
Q 2881 2656 2881 3163 
Q 2881 3666 2632 3958 
Q 2384 4250 1959 4250 
Q 1534 4250 1286 3958 
Q 1038 3666 1038 3163 
Q 1038 2656 1286 2365 
Q 1534 2075 1959 2075 
z
" transform="scale(0.015625)"/>
        <path id="DejaVuSans-2d" d="M 313 2009 
L 1997 2009 
L 1997 1497 
L 313 1497 
L 313 2009 
z
" transform="scale(0.015625)"/>
        <path id="DejaVuSans-52" d="M 2841 2188 
Q 3044 2119 3236 1894 
Q 3428 1669 3622 1275 
L 4263 0 
L 3584 0 
L 2988 1197 
Q 2756 1666 2539 1819 
Q 2322 1972 1947 1972 
L 1259 1972 
L 1259 0 
L 628 0 
L 628 4666 
L 2053 4666 
Q 2853 4666 3247 4331 
Q 3641 3997 3641 3322 
Q 3641 2881 3436 2590 
Q 3231 2300 2841 2188 
z
M 1259 4147 
L 1259 2491 
L 2053 2491 
Q 2509 2491 2742 2702 
Q 2975 2913 2975 3322 
Q 2975 3731 2742 3939 
Q 2509 4147 2053 4147 
L 1259 4147 
z
" transform="scale(0.015625)"/>
        <path id="DejaVuSans-2e" d="M 684 794 
L 1344 794 
L 1344 0 
L 684 0 
L 684 794 
z
" transform="scale(0.015625)"/>
       </defs>
       <use xlink:href="#DejaVuSans-42"/>
       <use xlink:href="#DejaVuSans-6d" x="68.603516"/>
       <use xlink:href="#DejaVuSans-70" x="166.015625"/>
       <use xlink:href="#DejaVuSans-38" x="229.492188"/>
       <use xlink:href="#DejaVuSans-61" x="293.115234"/>
       <use xlink:href="#DejaVuSans-20" x="354.394531"/>
       <use xlink:href="#DejaVuSans-47" x="386.181641"/>
       <use xlink:href="#DejaVuSans-50" x="463.671875"/>
       <use xlink:href="#DejaVuSans-2f" x="523.974609"/>
       <use xlink:href="#DejaVuSans-39" x="557.666016"/>
       <use xlink:href="#DejaVuSans-2d" x="621.289062"/>
       <use xlink:href="#DejaVuSans-63" x="657.373047"/>
       <use xlink:href="#DejaVuSans-69" x="712.353516"/>
       <use xlink:href="#DejaVuSans-73" x="740.136719"/>
       <use xlink:href="#DejaVuSans-2d" x="792.236328"/>
       <use xlink:href="#DejaVuSans-52" x="828.320312"/>
       <use xlink:href="#DejaVuSans-65" x="893.302734"/>
       <use xlink:href="#DejaVuSans-74" x="954.826172"/>
       <use xlink:href="#DejaVuSans-2e" x="994.035156"/>
       <use xlink:href="#DejaVuSans-20" x="1025.822266"/>
       <use xlink:href="#DejaVuSans-61" x="1057.609375"/>
       <use xlink:href="#DejaVuSans-63" x="1118.888672"/>
       <use xlink:href="#DejaVuSans-69" x="1173.869141"/>
       <use xlink:href="#DejaVuSans-64" x="1201.652344"/>
       <use xlink:href="#DejaVuSans-20" x="1265.128906"/>
       <use xlink:href="#DejaVuSans-47" x="1296.916016"/>
       <use xlink:href="#DejaVuSans-50" x="1374.40625"/>
       <use xlink:href="#DejaVuSans-2b" x="1434.708984"/>
       <use xlink:href="#DejaVuSans-20" x="1518.498047"/>
       <use xlink:href="#DejaVuSans-53" x="1550.285156"/>
       <use xlink:href="#DejaVuSans-70" x="1613.761719"/>
       <use xlink:href="#DejaVuSans-6c" x="1677.238281"/>
       <use xlink:href="#DejaVuSans-61" x="1705.021484"/>
       <use xlink:href="#DejaVuSans-6e" x="1766.300781"/>
       <use xlink:href="#DejaVuSans-63" x="1829.679688"/>
       <use xlink:href="#DejaVuSans-68" x="1884.660156"/>
       <use xlink:href="#DejaVuSans-6e" x="1948.039062"/>
       <use xlink:href="#DejaVuSans-69" x="2011.417969"/>
       <use xlink:href="#DejaVuSans-63" x="2039.201172"/>
       <use xlink:href="#DejaVuSans-20" x="2094.181641"/>
       <use xlink:href="#DejaVuSans-4d" x="2125.96875"/>
       <use xlink:href="#DejaVuSans-65" x="2212.248047"/>
       <use xlink:href="#DejaVuSans-73" x="2273.771484"/>
       <use xlink:href="#DejaVuSans-6f" x="2325.871094"/>
       <use xlink:href="#DejaVuSans-64" x="2387.052734"/>
       <use xlink:href="#DejaVuSans-65" x="2450.529297"/>
       <use xlink:href="#DejaVuSans-72" x="2512.052734"/>
       <use xlink:href="#DejaVuSans-6d" x="2551.416016"/>
      </g>
     </g>
    </g>
    <g id="ytick_18">
     <g id="text_18">
      <!-- Pgf GP/Cd44 GP+ Allantois -->
      <g style="fill: #262626" transform="translate(182.68 73.41974) scale(0.11662 -0.11662)">
       <use xlink:href="#DejaVuSans-50"/>
       <use xlink:href="#DejaVuSans-67" x="60.302734"/>
       <use xlink:href="#DejaVuSans-66" x="123.779297"/>
       <use xlink:href="#DejaVuSans-20" x="158.984375"/>
       <use xlink:href="#DejaVuSans-47" x="190.771484"/>
       <use xlink:href="#DejaVuSans-50" x="268.261719"/>
       <use xlink:href="#DejaVuSans-2f" x="328.564453"/>
       <use xlink:href="#DejaVuSans-43" x="362.255859"/>
       <use xlink:href="#DejaVuSans-64" x="432.080078"/>
       <use xlink:href="#DejaVuSans-34" x="495.556641"/>
       <use xlink:href="#DejaVuSans-34" x="559.179688"/>
       <use xlink:href="#DejaVuSans-20" x="622.802734"/>
       <use xlink:href="#DejaVuSans-47" x="654.589844"/>
       <use xlink:href="#DejaVuSans-50" x="732.080078"/>
       <use xlink:href="#DejaVuSans-2b" x="792.382812"/>
       <use xlink:href="#DejaVuSans-20" x="876.171875"/>
       <use xlink:href="#DejaVuSans-41" x="907.958984"/>
       <use xlink:href="#DejaVuSans-6c" x="976.367188"/>
       <use xlink:href="#DejaVuSans-6c" x="1004.150391"/>
       <use xlink:href="#DejaVuSans-61" x="1031.933594"/>
       <use xlink:href="#DejaVuSans-6e" x="1093.212891"/>
       <use xlink:href="#DejaVuSans-74" x="1156.591797"/>
       <use xlink:href="#DejaVuSans-6f" x="1195.800781"/>
       <use xlink:href="#DejaVuSans-69" x="1256.982422"/>
       <use xlink:href="#DejaVuSans-73" x="1284.765625"/>
      </g>
     </g>
    </g>
    <g id="ytick_19">
     <g id="text_19">
      <!-- Bmp4 GP/Vegfb GP+ Lateral Plate Mesoderm -->
      <g style="fill: #262626" transform="translate(182.68 52.474285) scale(0.11662 -0.11662)">
       <use xlink:href="#DejaVuSans-42"/>
       <use xlink:href="#DejaVuSans-6d" x="68.603516"/>
       <use xlink:href="#DejaVuSans-70" x="166.015625"/>
       <use xlink:href="#DejaVuSans-34" x="229.492188"/>
       <use xlink:href="#DejaVuSans-20" x="293.115234"/>
       <use xlink:href="#DejaVuSans-47" x="324.902344"/>
       <use xlink:href="#DejaVuSans-50" x="402.392578"/>
       <use xlink:href="#DejaVuSans-2f" x="462.695312"/>
       <use xlink:href="#DejaVuSans-56" x="496.386719"/>
       <use xlink:href="#DejaVuSans-65" x="557.044922"/>
       <use xlink:href="#DejaVuSans-67" x="618.568359"/>
       <use xlink:href="#DejaVuSans-66" x="682.044922"/>
       <use xlink:href="#DejaVuSans-62" x="717.25"/>
       <use xlink:href="#DejaVuSans-20" x="780.726562"/>
       <use xlink:href="#DejaVuSans-47" x="812.513672"/>
       <use xlink:href="#DejaVuSans-50" x="890.003906"/>
       <use xlink:href="#DejaVuSans-2b" x="950.306641"/>
       <use xlink:href="#DejaVuSans-20" x="1034.095703"/>
       <use xlink:href="#DejaVuSans-4c" x="1065.882812"/>
       <use xlink:href="#DejaVuSans-61" x="1121.595703"/>
       <use xlink:href="#DejaVuSans-74" x="1182.875"/>
       <use xlink:href="#DejaVuSans-65" x="1222.083984"/>
       <use xlink:href="#DejaVuSans-72" x="1283.607422"/>
       <use xlink:href="#DejaVuSans-61" x="1324.720703"/>
       <use xlink:href="#DejaVuSans-6c" x="1386"/>
       <use xlink:href="#DejaVuSans-20" x="1413.783203"/>
       <use xlink:href="#DejaVuSans-50" x="1445.570312"/>
       <use xlink:href="#DejaVuSans-6c" x="1505.873047"/>
       <use xlink:href="#DejaVuSans-61" x="1533.65625"/>
       <use xlink:href="#DejaVuSans-74" x="1594.935547"/>
       <use xlink:href="#DejaVuSans-65" x="1634.144531"/>
       <use xlink:href="#DejaVuSans-20" x="1695.667969"/>
       <use xlink:href="#DejaVuSans-4d" x="1727.455078"/>
       <use xlink:href="#DejaVuSans-65" x="1813.734375"/>
       <use xlink:href="#DejaVuSans-73" x="1875.257812"/>
       <use xlink:href="#DejaVuSans-6f" x="1927.357422"/>
       <use xlink:href="#DejaVuSans-64" x="1988.539062"/>
       <use xlink:href="#DejaVuSans-65" x="2052.015625"/>
       <use xlink:href="#DejaVuSans-72" x="2113.539062"/>
       <use xlink:href="#DejaVuSans-6d" x="2152.902344"/>
      </g>
     </g>
    </g>
    <g id="ytick_20">
     <g id="text_20">
      <!-- Cdh13 GP/Col1a1 GP+ Mixed mesenchymal mesoderm -->
      <g style="fill: #262626" transform="translate(182.68 31.528831) scale(0.11662 -0.11662)">
       <defs>
        <path id="DejaVuSans-79" d="M 2059 -325 
Q 1816 -950 1584 -1140 
Q 1353 -1331 966 -1331 
L 506 -1331 
L 506 -850 
L 844 -850 
Q 1081 -850 1212 -737 
Q 1344 -625 1503 -206 
L 1606 56 
L 191 3500 
L 800 3500 
L 1894 763 
L 2988 3500 
L 3597 3500 
L 2059 -325 
z
" transform="scale(0.015625)"/>
       </defs>
       <use xlink:href="#DejaVuSans-43"/>
       <use xlink:href="#DejaVuSans-64" x="69.824219"/>
       <use xlink:href="#DejaVuSans-68" x="133.300781"/>
       <use xlink:href="#DejaVuSans-31" x="196.679688"/>
       <use xlink:href="#DejaVuSans-33" x="260.302734"/>
       <use xlink:href="#DejaVuSans-20" x="323.925781"/>
       <use xlink:href="#DejaVuSans-47" x="355.712891"/>
       <use xlink:href="#DejaVuSans-50" x="433.203125"/>
       <use xlink:href="#DejaVuSans-2f" x="493.505859"/>
       <use xlink:href="#DejaVuSans-43" x="527.197266"/>
       <use xlink:href="#DejaVuSans-6f" x="597.021484"/>
       <use xlink:href="#DejaVuSans-6c" x="658.203125"/>
       <use xlink:href="#DejaVuSans-31" x="685.986328"/>
       <use xlink:href="#DejaVuSans-61" x="749.609375"/>
       <use xlink:href="#DejaVuSans-31" x="810.888672"/>
       <use xlink:href="#DejaVuSans-20" x="874.511719"/>
       <use xlink:href="#DejaVuSans-47" x="906.298828"/>
       <use xlink:href="#DejaVuSans-50" x="983.789062"/>
       <use xlink:href="#DejaVuSans-2b" x="1044.091797"/>
       <use xlink:href="#DejaVuSans-20" x="1127.880859"/>
       <use xlink:href="#DejaVuSans-4d" x="1159.667969"/>
       <use xlink:href="#DejaVuSans-69" x="1245.947266"/>
       <use xlink:href="#DejaVuSans-78" x="1273.730469"/>
       <use xlink:href="#DejaVuSans-65" x="1329.785156"/>
       <use xlink:href="#DejaVuSans-64" x="1391.308594"/>
       <use xlink:href="#DejaVuSans-20" x="1454.785156"/>
       <use xlink:href="#DejaVuSans-6d" x="1486.572266"/>
       <use xlink:href="#DejaVuSans-65" x="1583.984375"/>
       <use xlink:href="#DejaVuSans-73" x="1645.507812"/>
       <use xlink:href="#DejaVuSans-65" x="1697.607422"/>
       <use xlink:href="#DejaVuSans-6e" x="1759.130859"/>
       <use xlink:href="#DejaVuSans-63" x="1822.509766"/>
       <use xlink:href="#DejaVuSans-68" x="1877.490234"/>
       <use xlink:href="#DejaVuSans-79" x="1940.869141"/>
       <use xlink:href="#DejaVuSans-6d" x="2000.048828"/>
       <use xlink:href="#DejaVuSans-61" x="2097.460938"/>
       <use xlink:href="#DejaVuSans-6c" x="2158.740234"/>
       <use xlink:href="#DejaVuSans-20" x="2186.523438"/>
       <use xlink:href="#DejaVuSans-6d" x="2218.310547"/>
       <use xlink:href="#DejaVuSans-65" x="2315.722656"/>
       <use xlink:href="#DejaVuSans-73" x="2377.246094"/>
       <use xlink:href="#DejaVuSans-6f" x="2429.345703"/>
       <use xlink:href="#DejaVuSans-64" x="2490.527344"/>
       <use xlink:href="#DejaVuSans-65" x="2554.003906"/>
       <use xlink:href="#DejaVuSans-72" x="2615.527344"/>
       <use xlink:href="#DejaVuSans-6d" x="2654.890625"/>
      </g>
     </g>
    </g>
   </g>
   <g id="line2d_1">
    <path d="M 168.021818 404.116364 
L 123.451946 404.116364 
L 123.451946 383.170909 
L 168.021818 383.170909 
" clip-path="url(#pbb63359b78)" style="fill: none; stroke: #555555; stroke-width: 1.5; stroke-linecap: round"/>
   </g>
   <g id="line2d_2">
    <path d="M 168.021818 425.061818 
L 56.87165 425.061818 
L 56.87165 393.643636 
L 123.451946 393.643636 
" clip-path="url(#pbb63359b78)" style="fill: none; stroke: #555555; stroke-width: 1.5; stroke-linecap: round"/>
   </g>
   <g id="line2d_3">
    <path d="M 168.021818 362.225455 
L 139.536028 362.225455 
L 139.536028 341.28 
L 168.021818 341.28 
" clip-path="url(#pbb63359b78)" style="fill: none; stroke: #555555; stroke-width: 1.5; stroke-linecap: round"/>
   </g>
   <g id="line2d_4">
    <path d="M 168.021818 299.389091 
L 139.174163 299.389091 
L 139.174163 278.443636 
L 168.021818 278.443636 
" clip-path="url(#pbb63359b78)" style="fill: none; stroke: #555555; stroke-width: 1.5; stroke-linecap: round"/>
   </g>
   <g id="line2d_5">
    <path d="M 168.021818 320.334545 
L 77.300601 320.334545 
L 77.300601 288.916364 
L 139.174163 288.916364 
" clip-path="url(#pbb63359b78)" style="fill: none; stroke: #555555; stroke-width: 1.5; stroke-linecap: round"/>
   </g>
   <g id="line2d_6">
    <path d="M 139.536028 351.752727 
L 48.115781 351.752727 
L 48.115781 304.625455 
L 77.300601 304.625455 
" clip-path="url(#pbb63359b78)" style="fill: none; stroke: #555555; stroke-width: 1.5; stroke-linecap: round"/>
   </g>
   <g id="line2d_7">
    <path d="M 56.87165 409.352727 
L 41.949382 409.352727 
L 41.949382 328.189091 
L 48.115781 328.189091 
" clip-path="url(#pbb63359b78)" style="fill: none; stroke: #555555; stroke-width: 1.5; stroke-linecap: round"/>
   </g>
   <g id="line2d_8">
    <path d="M 168.021818 215.607273 
L 115.8343 215.607273 
L 115.8343 194.661818 
L 168.021818 194.661818 
" clip-path="url(#pbb63359b78)" style="fill: none; stroke: #555555; stroke-width: 1.5; stroke-linecap: round"/>
   </g>
   <g id="line2d_9">
    <path d="M 168.021818 152.770909 
L 115.583497 152.770909 
L 115.583497 131.825455 
L 168.021818 131.825455 
" clip-path="url(#pbb63359b78)" style="fill: none; stroke: #555555; stroke-width: 1.5; stroke-linecap: round"/>
   </g>
   <g id="line2d_10">
    <path d="M 168.021818 173.716364 
L 61.73586 173.716364 
L 61.73586 142.298182 
L 115.583497 142.298182 
" clip-path="url(#pbb63359b78)" style="fill: none; stroke: #555555; stroke-width: 1.5; stroke-linecap: round"/>
   </g>
   <g id="line2d_11">
    <path d="M 115.8343 205.134545 
L 58.039882 205.134545 
L 58.039882 158.007273 
L 61.73586 158.007273 
" clip-path="url(#pbb63359b78)" style="fill: none; stroke: #555555; stroke-width: 1.5; stroke-linecap: round"/>
   </g>
   <g id="line2d_12">
    <path d="M 168.021818 48.043636 
L 109.040124 48.043636 
L 109.040124 27.098182 
L 168.021818 27.098182 
" clip-path="url(#pbb63359b78)" style="fill: none; stroke: #555555; stroke-width: 1.5; stroke-linecap: round"/>
   </g>
   <g id="line2d_13">
    <path d="M 168.021818 68.989091 
L 104.016784 68.989091 
L 104.016784 37.570909 
L 109.040124 37.570909 
" clip-path="url(#pbb63359b78)" style="fill: none; stroke: #555555; stroke-width: 1.5; stroke-linecap: round"/>
   </g>
   <g id="line2d_14">
    <path d="M 168.021818 89.934545 
L 58.715206 89.934545 
L 58.715206 53.28 
L 104.016784 53.28 
" clip-path="url(#pbb63359b78)" style="fill: none; stroke: #555555; stroke-width: 1.5; stroke-linecap: round"/>
   </g>
   <g id="line2d_15">
    <path d="M 168.021818 110.88 
L 48.680714 110.88 
L 48.680714 71.607273 
L 58.715206 71.607273 
" clip-path="url(#pbb63359b78)" style="fill: none; stroke: #555555; stroke-width: 1.5; stroke-linecap: round"/>
   </g>
   <g id="line2d_16">
    <path d="M 58.039882 181.570909 
L 33.522869 181.570909 
L 33.522869 91.243636 
L 48.680714 91.243636 
" clip-path="url(#pbb63359b78)" style="fill: none; stroke: #555555; stroke-width: 1.5; stroke-linecap: round"/>
   </g>
   <g id="line2d_17">
    <path d="M 168.021818 236.552727 
L 22.470847 236.552727 
L 22.470847 136.407273 
L 33.522869 136.407273 
" clip-path="url(#pbb63359b78)" style="fill: none; stroke: #555555; stroke-width: 1.5; stroke-linecap: round"/>
   </g>
   <g id="line2d_18">
    <path d="M 168.021818 257.498182 
L 15.065979 257.498182 
L 15.065979 186.48 
L 22.470847 186.48 
" clip-path="url(#pbb63359b78)" style="fill: none; stroke: #555555; stroke-width: 1.5; stroke-linecap: round"/>
   </g>
   <g id="line2d_19">
    <path d="M 41.949382 368.770909 
L 14.858182 368.770909 
L 14.858182 221.989091 
L 15.065979 221.989091 
" clip-path="url(#pbb63359b78)" style="fill: none; stroke: #555555; stroke-width: 1.5; stroke-linecap: round"/>
   </g>
  </g>
 </g>
 <defs>
  <clipPath id="pbb63359b78">
   <rect x="7.2" y="7.2" width="168.48" height="437.76"/>
  </clipPath>
 </defs>
</svg>
